<svg width="111" height="87" viewBox="0 0 111 87" fill="none" xmlns="http://www.w3.org/2000/svg">
<path d="M110 79.9286C110 79.9286 102.791 77.0779 97.8889 75.6911C66.8827 66.9199 44.1173 92.9373 13.1111 84.1661C8.2086 82.7792 1 79.9286 1 79.9286M110 43.5C110 43.5 102.791 40.6494 97.8889 39.2625C66.8827 30.4913 44.1173 56.5087 13.1111 47.7375C8.2086 46.3506 1 43.5 1 43.5M110 7.07143C110 7.07143 102.791 4.22079 97.8889 2.83394C66.8827 -5.93726 44.1173 20.0801 13.1111 11.3089C8.2086 9.92207 1 7.07143 1 7.07143" stroke="black" stroke-width="2" stroke-linecap="round" stroke-linejoin="round"/>
</svg>
