<svg width="38" height="34" viewBox="0 0 38 34" fill="none" xmlns="http://www.w3.org/2000/svg">
<path d="M19 25.8889C12.5383 25.8889 7.3 20.7153 7.3 14.3333V3.76543C7.3 2.84425 7.3 2.38365 7.46865 2.02646C7.64749 1.64766 7.95575 1.3432 8.33929 1.16656C8.70095 1 9.1673 1 10.1 1H27.9C28.8327 1 29.299 1 29.6607 1.16656C30.0442 1.3432 30.3525 1.64766 30.5314 2.02646C30.7 2.38365 30.7 2.84425 30.7 3.76543V14.3333C30.7 20.7153 25.4617 25.8889 19 25.8889ZM19 25.8889V33M28 33H10M37 4.55556V13.4444M1 4.55556V13.4444" stroke="black" stroke-width="2" stroke-linecap="round" stroke-linejoin="round"/>
</svg>
