<svg width="181" height="67" viewBox="0 0 181 67" fill="none" xmlns="http://www.w3.org/2000/svg">
<path d="M7.29043 47.25V41.5H22.3904C24.3904 41.5 25.3904 40.4833 25.3904 38.45V36H14.3904C9.92376 36 6.44043 34.9 3.94043 32.7C1.44043 30.5 0.19043 27.3167 0.19043 23.15C0.19043 18.95 1.44043 15.75 3.94043 13.55C6.44043 11.35 9.92376 10.25 14.3904 10.25H32.6404V39.35C32.6404 41.7167 31.9571 43.6167 30.5904 45.05C29.2238 46.5167 27.0904 47.25 24.1904 47.25H7.29043ZM14.3904 30.25H25.3904V16H14.3904C12.2238 16 10.5571 16.6 9.39043 17.8C8.2571 18.9667 7.69043 20.75 7.69043 23.15C7.69043 25.5167 8.2571 27.3 9.39043 28.5C10.5571 29.6667 12.2238 30.25 14.3904 30.25Z" fill="black"/>
<path d="M37.1533 36V0.25H44.4033V36H37.1533Z" fill="black"/>
<path d="M62.0975 36.25C57.6308 36.25 54.1475 35.15 51.6475 32.95C49.1475 30.7167 47.8975 27.45 47.8975 23.15C47.8975 18.8167 49.1475 15.55 51.6475 13.35C54.1475 11.1167 57.6308 10 62.0975 10H71.3475C75.8141 10 79.2975 11.1167 81.7975 13.35C84.2975 15.55 85.5475 18.8167 85.5475 23.15C85.5475 27.45 84.2975 30.7167 81.7975 32.95C79.2975 35.15 75.8141 36.25 71.3475 36.25H62.0975ZM62.0975 30.5H71.3475C73.5141 30.5 75.1641 29.9 76.2975 28.7C77.4641 27.5 78.0475 25.65 78.0475 23.15C78.0475 20.6167 77.4641 18.75 76.2975 17.55C75.1641 16.35 73.5141 15.75 71.3475 15.75H62.0975C59.9308 15.75 58.2641 16.35 57.0975 17.55C55.9641 18.75 55.3975 20.6167 55.3975 23.15C55.3975 25.65 55.9641 27.5 57.0975 28.7C58.2641 29.9 59.9308 30.5 62.0975 30.5Z" fill="black"/>
<path d="M89.0596 36V0.25H96.3096V36H89.0596ZM90.3096 36V30.25H107.56C109.726 30.25 111.376 29.6667 112.51 28.5C113.676 27.3 114.26 25.5167 114.26 23.15C114.26 20.75 113.676 18.9667 112.51 17.8C111.376 16.6 109.726 16 107.56 16H90.8096V10.25H107.56C112.026 10.25 115.51 11.35 118.01 13.55C120.51 15.75 121.76 18.95 121.76 23.15C121.76 27.3167 120.51 30.5 118.01 32.7C115.51 34.9 112.026 36 107.56 36H90.3096Z" fill="black"/>
<path d="M132.117 36C129.417 36 127.35 35.3167 125.917 33.95C124.483 32.5833 123.767 30.6333 123.767 28.1C123.767 25.6 124.483 23.6667 125.917 22.3C127.35 20.9333 129.417 20.25 132.117 20.25H151.317V19.05C151.317 17.0167 150.317 16 148.317 16H127.117V10.25H150.217C153.25 10.25 155.4 10.95 156.667 12.35C157.933 13.7167 158.567 15.65 158.567 18.15V36H132.117ZM133.417 30.25H151.317V26H133.417C132.783 26 132.283 26.2 131.917 26.6C131.583 26.9667 131.417 27.4667 131.417 28.1C131.417 28.7333 131.583 29.25 131.917 29.65C132.283 30.05 132.783 30.25 133.417 30.25Z" fill="black"/>
<path d="M163.085 36V0.25H170.335V36H163.085Z" fill="black"/>
<path d="M8.00293 66V40.25H27.7029C30.6029 40.25 32.7363 40.9833 34.1029 42.45C35.4696 43.8833 36.1529 45.7833 36.1529 48.15V53.5H28.8029V49.05C28.8029 47.05 27.8029 46.05 25.8029 46.05H15.3529V66H8.00293Z" fill="black"/>
<path d="M53.3084 66.25C48.8417 66.25 45.3584 65.15 42.8584 62.95C40.3584 60.7167 39.1084 57.45 39.1084 53.15C39.1084 48.8167 40.3584 45.55 42.8584 43.35C45.3584 41.1167 48.8417 40 53.3084 40H65.8084C68.7417 40 70.9751 40.7 72.5084 42.1C74.0751 43.4667 74.8584 45.4333 74.8584 48C74.8584 53.2333 71.8417 55.85 65.8084 55.85H46.9084C47.6084 58.95 49.7417 60.5 53.3084 60.5H73.5584V66.25H53.3084ZM53.3084 45.75C49.8751 45.75 47.7584 47.2 46.9584 50.1H65.4584C66.1251 50.1 66.6417 49.9 67.0084 49.5C67.4084 49.1 67.6084 48.55 67.6084 47.85C67.6084 46.45 66.8917 45.75 65.4584 45.75H53.3084Z" fill="black"/>
<path d="M85.2162 66C82.5162 66 80.4495 65.3167 79.0162 63.95C77.5829 62.5833 76.8662 60.6333 76.8662 58.1C76.8662 55.6 77.5829 53.6667 79.0162 52.3C80.4495 50.9333 82.5162 50.25 85.2162 50.25H104.416V49.05C104.416 47.0167 103.416 46 101.416 46H80.2162V40.25H103.316C106.35 40.25 108.5 40.95 109.766 42.35C111.033 43.7167 111.666 45.65 111.666 48.15V66H85.2162ZM86.5162 60.25H104.416V56H86.5162C85.8829 56 85.3829 56.2 85.0162 56.6C84.6829 56.9667 84.5162 57.4667 84.5162 58.1C84.5162 58.7333 84.6829 59.25 85.0162 59.65C85.3829 60.05 85.8829 60.25 86.5162 60.25Z" fill="black"/>
<path d="M129.385 66.25C124.918 66.25 121.435 65.15 118.935 62.95C116.435 60.7167 115.185 57.45 115.185 53.15C115.185 48.8167 116.435 45.55 118.935 43.35C121.435 41.1167 124.918 40 129.385 40H146.135V45.75H129.385C127.218 45.75 125.551 46.35 124.385 47.55C123.251 48.75 122.685 50.6167 122.685 53.15C122.685 55.65 123.251 57.5 124.385 58.7C125.551 59.9 127.218 60.5 129.385 60.5H146.635V66.25H129.385Z" fill="black"/>
<path d="M149.364 66V30.25H156.614V40.25H171.814C174.748 40.25 176.881 40.9833 178.214 42.45C179.581 43.8833 180.264 45.7833 180.264 48.15V66H173.014V49C173.014 47 172.014 46 170.014 46H156.614V66H149.364Z" fill="black"/>
</svg>
