<svg width="1440" height="948" viewBox="0 0 1440 948" fill="none" xmlns="http://www.w3.org/2000/svg">
<g opacity="0.1">
<path d="M1439.94 929.22C1429.39 935.162 1418.84 941.014 1408.41 946.806C1407.72 947.194 1407.02 947.582 1406.33 947.97H1409.2C1419.34 942.327 1429.64 936.625 1439.94 930.833V929.22Z" fill="url(#paint0_linear_110_164)"/>
<path d="M1439.94 886.197C1434.69 889.153 1429.45 892.109 1424.27 895.005C1403.04 906.918 1381.09 919.248 1360.3 931.907C1351.74 937.162 1343.34 942.536 1335.09 947.94H1337.68C1345.36 942.924 1353.16 937.938 1361.12 933.072C1381.88 920.413 1403.83 908.112 1425.03 896.199C1429.99 893.423 1434.98 890.616 1439.97 887.81V886.197H1439.94Z" fill="url(#paint1_linear_110_164)"/>
<path d="M1439.94 843.324C1418.9 855.296 1397.13 867.656 1376.79 880.554C1358.41 892.258 1341.16 904.768 1324.48 916.83C1309.66 927.578 1295.16 938.058 1280.09 947.94H1282.65C1297.12 938.356 1311.08 928.265 1325.36 917.935C1342.01 905.873 1359.26 893.393 1377.61 881.689C1397.67 868.97 1419.12 856.759 1439.94 844.936V843.324Z" fill="url(#paint2_linear_110_164)"/>
<path d="M57.8401 947.97H60.7147C51.5854 942.835 42.1718 938.267 32.5054 934.535C21.9546 930.445 11.0879 927.399 0.0631787 925.339V926.742C10.8983 928.772 21.5755 931.788 31.9684 935.819C40.8134 939.252 49.4373 943.372 57.8401 948V947.97Z" fill="url(#paint3_linear_110_164)"/>
<path d="M1439.94 800.719C1424.11 809.914 1408.22 819.379 1393.31 829.231C1375.08 841.293 1358.37 854.311 1342.2 866.91C1307.8 893.691 1275.32 919.01 1229.05 936.296C1218.91 940.118 1208.83 944.029 1198.85 948H1202.64C1211.55 944.477 1220.52 940.984 1229.55 937.58C1276.02 920.204 1308.62 894.856 1343.08 867.985C1359.23 855.415 1375.91 842.398 1394.1 830.366C1408.76 820.692 1424.33 811.407 1439.91 802.361V800.719H1439.94Z" fill="url(#paint4_linear_110_164)"/>
<path d="M84.3751 931.579C90.9457 936.326 97.8638 941.73 105.382 947.97H107.593C99.5696 941.253 92.2093 935.49 85.2596 930.474C71.8973 920.831 58.0296 912.65 44.0987 906.112C29.8835 899.454 15.1313 894.677 0.0631787 891.751V893.154C14.9102 896.05 29.4413 900.797 43.4353 907.336C57.3031 913.815 71.076 921.965 84.3751 931.549V931.579Z" fill="url(#paint5_linear_110_164)"/>
<path d="M1439.94 758.502C1429.64 764.771 1419.47 771.19 1409.8 777.819C1391.73 790.239 1375.56 803.794 1359.92 816.901C1326.94 844.518 1295.79 870.642 1248.35 887.003C1208.77 900.737 1168.21 916.8 1116.78 939.073C1110.02 941.999 1103.29 944.955 1096.56 947.94H1100C1105.79 945.373 1111.57 942.835 1117.38 940.327C1168.74 918.054 1209.3 902.021 1248.82 888.287C1296.49 871.807 1327.76 845.623 1360.84 817.916C1376.44 804.839 1392.58 791.314 1410.59 778.923C1419.97 772.474 1429.83 766.234 1439.84 760.114V758.472L1439.94 758.502Z" fill="url(#paint6_linear_110_164)"/>
<path d="M94.5153 905.305C103.171 912.023 111.289 918.89 118.081 924.712C127.242 932.564 135.834 940.327 144.111 947.97H146.227C137.603 939.999 128.663 931.878 119.092 923.667C112.269 917.845 104.118 910.978 95.463 904.231C81.6585 893.512 68.6436 884.824 55.6604 877.718C37.844 867.925 19.1747 861.088 0.0631787 857.207V858.61C18.8904 862.491 37.3386 869.239 54.9339 878.912C67.8539 885.988 80.8055 894.647 94.5469 905.305H94.5153Z" fill="url(#paint7_linear_110_164)"/>
<path d="M1439.94 717.15C1435.29 720.226 1430.74 723.301 1426.32 726.495C1408.41 739.304 1392.81 753.366 1377.71 766.981C1346.12 795.434 1316.3 822.334 1267.71 837.8C1224.75 851.504 1182.61 867.507 1135.1 888.198C1101.2 902.977 1067.34 919.428 1031.52 936.834C1024.82 940.088 1018.06 943.372 1011.24 946.686C1010.32 947.134 1009.44 947.552 1008.52 947.97H1011.77C1011.77 947.97 1011.87 947.94 1011.9 947.91C1018.72 944.596 1025.48 941.312 1032.18 938.058C1068 920.652 1101.84 904.201 1135.73 889.422C1183.21 868.761 1225.32 852.758 1268.22 839.084C1317.09 823.499 1347.03 796.509 1378.75 767.966C1393.82 754.381 1409.42 740.349 1427.24 727.6C1431.38 724.644 1435.64 721.719 1439.97 718.852V717.15H1439.94Z" fill="url(#paint8_linear_110_164)"/>
<path d="M123.609 895.274L127.779 898.886C136.845 906.739 145.406 914.441 153.682 921.876C163.886 931.042 173.647 939.79 183.376 947.97H185.587C175.447 939.491 165.307 930.415 154.693 920.861C146.417 913.426 137.856 905.723 128.758 897.871L124.588 894.259C106.582 878.644 87.9763 862.462 67.2221 849.325C45.8993 835.8 23.2182 826.485 0.0631787 821.558V822.961C22.9339 827.858 45.3307 837.084 66.4008 850.459C87.0602 863.566 105.635 879.689 123.609 895.274Z" fill="url(#paint9_linear_110_164)"/>
<path d="M1439.94 673.859C1433.84 677.919 1427.87 682.039 1422.15 686.279C1404.62 699.356 1389.74 713.866 1375.37 727.899C1345.58 757.009 1317.43 784.506 1268.03 798.778C1224.4 811.497 1181.03 826.962 1135.45 846.1C1095.58 862.85 1056.06 882.167 1012.28 903.872C971.783 923.906 936.34 938.297 903.329 947.94H908.194C940.036 938.297 974.184 924.264 1012.94 905.096C1056.7 883.421 1096.18 864.104 1136.02 847.384C1181.57 828.276 1224.88 812.81 1268.44 800.121C1318.19 785.731 1346.46 758.113 1376.41 728.884C1390.75 714.881 1405.57 700.401 1423.04 687.384C1428.47 683.353 1434.12 679.412 1439.91 675.56V673.859H1439.94Z" fill="url(#paint10_linear_110_164)"/>
<path d="M119.345 857.087C123.704 860.67 128.032 864.253 132.423 867.806C136.908 871.448 141.299 875.031 145.564 878.524C182.618 908.799 213.196 933.759 252.272 948H256.474C215.787 934.087 184.577 908.59 146.511 877.479C142.215 873.986 137.856 870.403 133.37 866.761C129.011 863.238 124.652 859.655 120.324 856.072C104.94 843.383 89.0504 830.276 71.9605 819.021C48.9319 803.853 24.6081 793.224 0.094768 787.432V788.866C24.3238 794.628 48.3317 805.167 71.1076 820.155C88.1343 831.381 103.992 844.458 119.345 857.117V857.087Z" fill="url(#paint11_linear_110_164)"/>
<path d="M422.571 947.97C426.677 947.015 430.784 946.03 434.859 945.074C462.942 938.386 492.004 931.49 522.109 930.027C564.217 927.907 606.073 936.714 650.425 946C653.615 946.657 656.837 947.313 660.028 948H666.851C661.481 946.895 656.079 945.791 650.74 944.656C606.294 935.341 564.344 926.533 522.046 928.653C491.783 930.146 462.658 937.073 434.511 943.76C428.509 945.194 422.507 946.627 416.411 948H422.571V947.97Z" fill="url(#paint12_linear_110_164)"/>
<path d="M1439.94 630.447C1432.36 635.493 1424.96 640.688 1418.01 646.092C1400.83 659.438 1386.74 674.426 1373.09 688.876C1345.07 718.643 1318.63 746.738 1268.41 759.815C1223.71 771.638 1180.34 786.119 1135.86 804.092C1092.77 821.499 1049.78 842.697 1013.42 861.118C966.381 884.914 903.803 913.247 837.023 921.547C790.397 927.369 740.833 924.413 676.265 911.963C666.409 910.023 656.458 907.963 646.855 905.962C605.915 897.423 567.218 889.332 528.269 889.959C496.458 890.437 465.753 896.528 436.091 902.409C405.354 908.5 373.544 914.8 339.427 915.337C249.429 916.681 206.342 887.421 137.951 835.621C130.527 830.008 123.04 824.066 115.838 818.304C103.266 808.302 90.2507 797.972 76.6673 788.656C51.7433 771.608 25.7453 759.397 0.094768 752.59V754.023C25.461 760.8 51.1431 772.892 75.8144 789.761C89.3662 799.047 102.349 809.377 114.89 819.349C122.124 825.081 129.579 831.023 137.035 836.666C205.678 888.675 248.829 918.054 339.459 916.711C373.733 916.203 405.607 909.873 436.407 903.753C467.396 897.603 496.648 891.81 528.332 891.333C529.722 891.333 531.143 891.303 532.533 891.303C569.935 891.303 607.21 899.065 646.571 907.306C656.205 909.306 666.124 911.396 676.012 913.307C740.738 925.787 790.492 928.743 837.275 922.891C904.276 914.561 967.013 886.138 1014.18 862.312C1050.5 843.921 1093.46 822.752 1136.49 805.346C1180.9 787.402 1224.21 772.952 1268.85 761.159C1319.49 747.962 1346.08 719.718 1374.26 689.802C1387.85 675.381 1401.9 660.453 1418.99 647.167C1425.66 642.002 1432.73 636.986 1440 632.149V630.447H1439.94Z" fill="url(#paint13_linear_110_164)"/>
<path d="M1439.94 587.006C1430.84 593.037 1422.03 599.307 1413.88 605.906C1397.07 619.55 1383.74 634.956 1370.85 649.824C1344.6 680.188 1319.8 708.85 1268.79 720.853C1223.77 731.452 1180.43 744.917 1136.27 762.054C1100.23 776.057 1062.7 793.404 1014.55 818.334C967.74 842.517 905.666 871.508 840.656 881.241C793.272 888.377 742.571 886.406 681.098 875.031C668.273 872.613 655.353 869.896 642.875 867.268C605.473 859.416 570.188 851.982 534.523 851.325C500.596 850.668 469.039 855.684 435.743 861.028C407.313 865.596 377.903 870.314 346.598 871.18C256.348 873.658 210.733 852.609 142.563 804.48C131.98 797.016 121.493 788.865 111.352 780.983C101.655 773.43 91.6091 765.607 81.3741 758.322C53.8598 738.766 26.5982 724.913 0.094768 716.971V718.434C26.3139 726.346 53.2596 740.08 80.4896 759.457C90.693 766.742 100.707 774.534 110.405 782.058C120.545 789.94 131.033 798.121 141.647 805.615C210.101 853.952 256 875.121 346.63 872.583C378.061 871.687 407.503 866.97 435.996 862.402C469.228 857.087 500.596 852.042 534.492 852.698C569.998 853.355 605.252 860.76 642.559 868.612C655.037 871.239 667.957 873.956 680.814 876.375C742.444 887.78 793.303 889.75 840.877 882.585C906.14 872.822 968.34 843.771 1015.25 819.528C1063.36 794.628 1100.83 777.311 1136.81 763.308C1180.87 746.201 1224.15 732.735 1269.13 722.166C1320.62 710.074 1345.58 681.233 1371.99 650.69C1384.85 635.822 1398.11 620.475 1414.85 606.921C1422.72 600.561 1431.22 594.5 1439.97 588.678V586.977L1439.94 587.006Z" fill="url(#paint14_linear_110_164)"/>
<path d="M1439.94 543.476C1429.32 550.522 1419.02 557.837 1409.71 565.719C1393.25 579.632 1380.71 595.516 1368.58 610.832C1344.09 641.793 1320.94 671.052 1269.1 681.86C1223.14 691.444 1179.8 703.924 1136.62 719.987C1099.69 733.751 1061.24 751.396 1015.63 775.52C966.128 801.644 907.025 829.828 844.194 840.875C796.241 849.355 744.434 848.429 685.868 838.039C670.01 835.173 654.121 831.769 638.768 828.485C604.936 821.23 572.999 814.393 540.683 812.661C503.376 810.601 468.754 814.93 432.079 819.498C406.997 822.633 381.031 825.887 353.674 826.992C262.444 830.724 216.166 818.662 147.048 773.31C133.181 764.234 119.787 753.844 106.804 743.812C100.043 738.557 93.0306 733.154 86.0178 727.958C55.85 705.656 27.0089 689.742 0.0315893 680.487V681.95C26.7246 691.205 55.2498 706.969 85.1017 729.063C92.1145 734.258 99.0958 739.662 105.887 744.917C118.871 754.979 132.296 765.369 146.227 774.475C215.66 820.036 262.192 832.157 353.737 828.395C381.189 827.261 407.155 824.007 432.269 820.872C468.849 816.304 503.439 811.974 540.588 814.034C572.778 815.766 604.683 822.603 638.421 829.828C653.805 833.113 669.694 836.516 685.583 839.383C744.34 849.802 796.304 850.728 844.446 842.219C907.499 831.142 966.697 802.898 1016.32 776.714C1061.88 752.62 1100.29 735.005 1137.15 721.241C1180.27 705.178 1223.52 692.758 1269.39 683.174C1321.76 672.246 1345.04 642.808 1369.71 611.608C1381.81 596.322 1394.32 580.498 1410.65 566.674C1419.66 559.061 1429.61 551.955 1439.91 545.088V543.386L1439.94 543.476Z" fill="url(#paint15_linear_110_164)"/>
<path d="M1439.94 499.885C1427.78 507.917 1415.96 516.336 1405.57 525.502C1389.46 539.714 1377.71 556.075 1366.33 571.869C1343.59 603.487 1322.11 633.344 1269.45 642.868C1222.07 651.586 1178.76 663.051 1137.03 677.919C1099.18 691.414 1060.99 708.82 1016.73 732.706C967.392 759.308 908.731 788.179 847.795 800.509C798.8 810.481 747.404 810.661 690.701 801.047C671.811 797.792 652.952 793.613 634.725 789.582C604.462 782.894 575.874 776.565 546.938 773.967C504.355 770.086 464.616 773.848 422.539 777.848C402.701 779.729 382.168 781.67 360.845 782.834C271.984 787.641 222.389 785.193 151.629 742.2C134.413 731.75 118.176 719.061 102.507 706.82C98.5903 703.745 94.6733 700.7 90.7246 697.654C56.5765 671.381 26.7878 653.437 0.0315893 642.927V644.42C26.535 654.9 56.0079 672.724 89.8085 698.729C93.7572 701.774 97.6742 704.82 101.591 707.895C117.291 720.166 133.56 732.885 150.871 743.394C221.978 786.626 271.795 789.104 360.94 784.268C382.294 783.103 402.827 781.163 422.697 779.282C464.679 775.311 504.355 771.549 546.812 775.4C575.653 777.998 604.178 784.297 634.409 790.985C652.667 795.016 671.526 799.196 690.448 802.45C747.341 812.094 798.926 811.915 848.111 801.913C909.236 789.522 968.024 760.621 1017.46 733.93C1061.62 710.074 1099.78 692.668 1137.53 679.233C1179.2 664.394 1222.44 652.959 1269.73 644.241C1322.99 634.627 1344.63 604.532 1367.53 572.646C1378.87 556.881 1390.56 540.61 1406.55 526.487C1416.66 517.59 1428.09 509.38 1439.91 501.557V499.856L1439.94 499.885Z" fill="url(#paint16_linear_110_164)"/>
<path d="M1439.94 456.295C1426.23 465.312 1412.86 474.806 1401.4 485.345C1385.67 499.826 1374.7 516.665 1364.09 532.937C1343.08 565.152 1323.25 595.605 1269.8 603.935C1221.65 611.548 1178.35 621.998 1137.41 635.911C1099.5 648.809 1060.39 666.484 1017.84 689.981C966.128 718.494 910.184 746.738 851.396 760.263C801.516 771.788 750.531 773.042 695.534 764.174C673.548 760.562 651.72 755.516 630.587 750.619C603.925 744.469 578.717 738.647 553.193 735.393C501.102 728.765 451.98 732.467 399.953 736.408C389.591 737.184 378.883 737.99 368.047 738.737C361.982 739.155 356.075 739.573 350.326 739.961C274.006 745.335 223.558 748.888 156.272 711.119C135.55 699.505 116.723 684.398 98.4956 669.768L95.4946 667.38C66.6851 644.331 32.8845 618.804 0.537019 604.293C0.379072 604.234 0.252715 604.174 0.094768 604.114V605.637C32.2527 620.087 65.8638 645.495 94.5469 668.425L97.5479 670.813C115.807 685.473 134.697 700.61 155.514 712.284C223.21 750.291 273.816 746.738 350.452 741.334C356.201 740.916 362.077 740.498 368.142 740.11C379.009 739.364 389.718 738.557 400.047 737.781C451.98 733.84 501.039 730.138 553.003 736.766C578.464 739.991 603.609 745.813 630.239 751.963C651.404 756.859 673.264 761.905 695.281 765.518C750.468 774.445 801.643 773.161 851.743 761.607C910.721 748.022 966.792 719.748 1018.6 691.175C1061.05 667.738 1100.1 650.093 1137.91 637.225C1178.79 623.342 1222 612.892 1270.05 605.308C1324.16 596.859 1344.19 566.167 1365.35 533.683C1375.91 517.471 1386.84 500.721 1402.44 486.361C1413.59 476.09 1426.57 466.835 1439.94 458.027V456.295Z" fill="url(#paint17_linear_110_164)"/>
<path d="M1439.94 412.615C1424.71 422.647 1409.71 433.156 1397.26 445.129C1381.91 459.908 1371.74 477.225 1361.88 493.974C1342.61 526.786 1324.38 557.777 1270.14 564.943C1220.61 571.481 1178.57 580.677 1137.78 593.844C1099.47 606.264 1060.58 623.7 1018.95 647.167C959.242 680.815 908.51 706.074 854.966 719.897C804.328 732.974 753.753 735.363 700.336 727.152C675.254 723.211 650.393 717.15 626.385 711.299C603.325 705.656 581.528 700.341 559.384 696.699C494.721 686.07 435.364 689.623 375.155 694.519C359.013 695.833 344.197 697.445 329.856 698.998C266.456 705.865 220.652 710.821 160.821 679.919C138.709 668.514 119.502 653.079 100.17 636.956L97.1056 634.389C64.8529 607.488 36.9911 584.26 9.25568 568.585C6.28628 566.913 3.22211 565.331 0.0631787 563.808V565.331C2.93781 566.734 5.74926 568.197 8.49753 569.749C36.1382 585.335 63.9368 608.533 96.1264 635.404L99.1905 637.971C118.586 654.153 137.856 669.619 160.095 681.114C220.367 712.224 266.361 707.238 330.014 700.341C344.355 698.789 359.171 697.177 375.281 695.863C435.396 690.966 494.658 687.413 559.131 698.013C581.212 701.655 602.977 706.94 626.006 712.582C650.045 718.464 674.938 724.525 700.083 728.466C753.722 736.706 804.486 734.318 855.345 721.181C909.015 707.298 959.874 682.01 1019.67 648.302C1061.21 624.894 1100 607.488 1138.26 595.098C1178.95 581.931 1220.9 572.765 1270.33 566.256C1325.33 559.001 1343.68 527.712 1363.17 494.571C1372.97 477.911 1383.08 460.684 1398.3 446.025C1410.43 434.351 1425.06 424.05 1439.94 414.228V412.556V412.615Z" fill="url(#paint18_linear_110_164)"/>
<path d="M1439.94 376.638C1437.5 378.609 1435.04 380.579 1432.61 382.52C1417 395 1400.86 407.898 1386.49 421.453C1375.84 431.514 1366.84 442.293 1358.15 452.712C1356.19 455.071 1354.24 457.4 1352.28 459.729C1349.94 462.505 1347.63 465.252 1345.36 467.999C1323.18 494.75 1302.24 520.009 1252.36 526.876C1204.41 533.534 1162.96 543.625 1121.93 558.673C1085.09 572.168 1047.31 590.022 1006.5 613.22C955.83 642.062 900.991 670.604 843.214 684.04C830.136 687.085 816.837 689.384 803.728 690.877C767.274 694.997 730.156 693.355 690.227 685.861C667.388 681.502 644.739 675.441 622.784 669.589C598.176 663.021 574.958 656.811 551.266 652.72C524.32 648.063 497.88 645.973 470.334 646.421C437.386 646.898 403.838 651.078 369.501 655.646C355.822 657.468 343.029 659.498 330.614 661.438C287.495 668.216 250.251 674.068 211.585 665.708C193.769 661.856 176.426 655.169 158.578 645.286C136.908 633.194 118.049 616.564 100.612 600.591C96.8529 597.158 93.157 593.724 89.4926 590.35C74.077 576.139 59.5143 562.733 45.1728 550.94C34.8746 542.491 24.7345 535.086 15.0049 528.966C10.2665 525.98 5.24383 523.233 0.0315893 520.695V522.278C4.92794 524.696 9.69793 527.323 14.1836 530.13C23.85 536.221 33.9585 543.565 44.1935 551.985C58.5035 563.748 73.0346 577.154 88.4502 591.336C92.1145 594.709 95.8105 598.143 99.5696 601.576C117.07 617.609 135.992 634.299 157.82 646.48C175.795 656.452 193.264 663.17 211.238 667.051C250.219 675.441 287.558 669.589 330.835 662.782C343.218 660.841 356.044 658.841 369.69 657.02C403.996 652.452 437.481 648.272 470.334 647.794C497.753 647.346 524.099 649.406 550.95 654.064C574.547 658.154 597.765 664.364 622.342 670.903C644.296 676.755 667.009 682.816 689.88 687.204C729.966 694.758 767.242 696.4 803.822 692.25C816.995 690.757 830.326 688.458 843.467 685.383C901.402 671.888 956.367 643.316 1007.13 614.415C1047.88 591.246 1085.57 573.452 1122.34 559.957C1163.28 544.969 1204.63 534.877 1252.45 528.219C1302.93 521.263 1324.04 495.795 1346.4 468.805C1348.68 466.058 1350.98 463.282 1353.32 460.535C1355.28 458.206 1357.24 455.877 1359.23 453.518C1367.91 443.128 1376.88 432.38 1387.47 422.378C1401.78 408.883 1417.19 396.553 1433.49 383.535C1435.61 381.833 1437.73 380.132 1439.87 378.43V376.608L1439.94 376.638Z" fill="url(#paint19_linear_110_164)"/>
<path d="M1439.94 335.168C1419.44 356.037 1397.95 377.265 1375.75 397.777C1371.7 401.539 1367.76 405.33 1363.9 409.003C1355.53 417.004 1347.63 424.588 1338.95 431.783C1335.12 434.948 1331.36 438.202 1327.7 441.307C1303.16 462.386 1279.97 482.3 1234.51 488.839C1187.92 495.646 1147.07 506.663 1105.97 523.532C1071.04 537.863 1034.39 556.105 993.927 579.304C946.511 606.533 890.124 636.031 831.337 648.182C818.259 650.899 805.054 652.78 792.04 653.825C756.975 656.602 720.332 653.556 680.055 644.54C659.491 639.882 638.989 633.881 619.151 628.119C594.164 620.834 568.324 613.31 543.116 608.682C515.633 603.666 489.319 601.756 462.784 602.92C429.268 604.323 396.004 610.623 363.814 616.714C352.411 618.863 341.481 621.162 330.93 623.372C286.768 632.627 248.608 640.599 208.395 631.791C190.673 627.88 173.615 620.953 156.336 610.593C135.202 597.934 117.418 580.707 101.023 564.166C95.7157 558.792 90.5035 553.478 85.4176 548.223C72.9398 535.415 61.1254 523.323 49.311 512.395C40.0869 503.856 30.4521 496.064 20.7542 489.257C14.3416 484.778 7.32873 480.718 0 477.045V478.598C7.01283 482.121 13.7098 486.032 19.9013 490.331C29.5676 497.079 39.1076 504.842 48.3001 513.351C60.0829 524.248 71.8658 536.34 84.3435 549.119C89.461 554.373 94.6732 559.688 99.9803 565.062C116.438 581.692 134.286 598.979 155.578 611.728C173.015 622.177 190.199 629.164 208.111 633.105C248.64 642.002 286.926 634 331.309 624.715C341.86 622.506 352.758 620.237 364.162 618.057C396.288 611.966 429.489 605.697 462.91 604.293C489.351 603.129 515.506 605.04 542.894 610.026C568.04 614.624 592.679 621.819 618.772 629.432C638.642 635.225 659.143 641.196 679.771 645.883C720.237 654.93 757.007 657.975 792.229 655.198C805.307 654.183 818.606 652.273 831.747 649.526C890.756 637.315 947.27 607.757 994.78 580.468C1035.18 557.299 1071.76 539.087 1106.64 524.786C1147.61 507.977 1188.33 496.989 1234.8 490.182C1280.7 483.584 1304.04 463.52 1328.74 442.293C1332.38 439.158 1336.13 435.933 1339.96 432.768C1348.68 425.543 1356.6 417.96 1364.98 409.928C1368.8 406.256 1372.78 402.464 1376.79 398.732C1398.62 378.579 1419.75 357.709 1439.94 337.168V335.138V335.168Z" fill="url(#paint20_linear_110_164)"/>
<path d="M1439.94 286.86C1430.52 297.698 1421.8 308.655 1413.37 319.344C1397.8 339.049 1383.08 357.68 1365.01 374.071C1353.7 384.341 1341.09 395.03 1325.71 403.778C1319.83 407.122 1314.09 410.585 1308.53 413.929C1282.31 429.693 1257.57 444.591 1216.79 450.742C1171.33 457.728 1131.09 469.671 1090.18 488.331C1057.67 503.17 1023.15 521.263 981.544 545.327C934.887 572.407 879.163 601.517 819.649 612.295C806.602 614.683 793.43 616.176 780.509 616.743C746.835 618.266 710.665 613.847 670.01 603.218C651.688 598.382 633.335 592.56 615.613 586.917C589.173 578.497 561.848 569.809 535.06 564.644C507.293 559.3 481.2 557.598 455.329 559.419C422.823 561.658 391.455 569.481 358.255 577.781C348.936 580.11 339.838 582.528 331.088 584.857C285.978 596.829 247.06 607.16 205.362 597.844C187.735 593.903 170.993 586.708 154.219 575.87C133.465 562.465 116.154 543.954 101.56 527.682C95.3998 520.815 89.3662 513.888 83.5538 507.2C73.2241 495.347 63.463 484.151 53.5755 473.791C45.2359 465.073 36.1698 456.922 26.5982 449.518C18.4482 443.218 9.4768 437.635 0.0631787 432.828V434.44C9.1925 439.158 17.9112 444.562 25.6821 450.563C35.1589 457.907 44.1935 466.028 52.4699 474.687C62.3574 485.017 72.0869 496.183 82.4166 508.036C88.2606 514.724 94.2626 521.651 100.423 528.518C115.08 544.879 132.454 563.45 153.366 576.945C170.298 587.872 187.167 595.127 204.983 599.128C247.06 608.533 286.168 598.143 331.435 586.111C340.186 583.782 349.252 581.364 358.571 579.065C391.708 570.794 423.013 563.002 455.392 560.763C481.106 558.941 507.072 560.643 534.713 565.958C561.406 571.093 587.499 579.393 615.108 588.171C632.861 593.814 651.214 599.636 669.568 604.502C710.381 615.161 746.677 619.61 780.509 618.087C793.524 617.52 806.76 616.027 819.87 613.638C879.605 602.83 935.487 573.631 982.239 546.491C1023.81 522.457 1058.27 504.364 1090.75 489.555C1131.53 470.955 1171.65 459.042 1216.95 452.085C1258.01 445.905 1282.87 430.917 1309.22 415.064C1314.78 411.72 1320.53 408.256 1326.37 404.912C1341.88 396.105 1354.55 385.327 1365.92 375.026C1384.09 358.575 1398.84 339.915 1414.44 320.15C1422.53 309.879 1430.87 299.37 1439.84 288.98V286.83L1439.94 286.86Z" fill="url(#paint21_linear_110_164)"/>
<path d="M1439.94 236.373C1438.8 237.567 1437.63 238.732 1436.53 239.956C1432.96 243.807 1430.05 246.972 1427.43 249.988C1414.51 264.826 1404.62 280.919 1395.08 296.474C1382.82 316.448 1371.26 335.317 1354.24 350.365C1341 362.098 1327.7 370.189 1312.41 375.832C1303.31 379.176 1294.47 382.759 1285.91 386.222C1260.48 396.493 1234.2 407.122 1198.97 412.705C1154.53 419.87 1114.88 432.738 1074.26 453.19C1041.12 469.88 1008.21 488.51 969.035 511.41C923.041 538.341 867.949 567.122 807.834 576.437C794.851 578.468 781.71 579.572 768.853 579.692C736.032 579.96 701.41 574.377 659.87 561.897C643.759 557.031 627.586 551.418 611.949 545.984C584.087 536.34 555.246 526.338 526.91 520.606C498.985 514.963 473.114 513.44 447.779 515.948C415.621 519.083 385.074 528.667 352.569 538.848C345.208 541.147 337.943 543.536 330.898 545.834C285.031 560.793 245.418 573.72 202.172 563.898C184.608 559.897 168.182 552.463 151.976 541.147C132.549 527.592 116.47 509.141 102.002 491.227C95.4314 483.076 89.0504 474.836 82.8904 466.864C74.2665 455.698 66.1165 445.189 57.7453 435.246C50.2271 426.319 41.6979 417.78 32.3791 409.809C22.618 401.479 11.6249 394.194 0.0631787 388.163V389.715C11.2774 395.627 21.923 402.733 31.3998 410.824C40.6555 418.736 49.1214 427.245 56.6081 436.082C64.9793 445.995 73.0977 456.504 81.7216 467.641C87.8816 475.612 94.2942 483.883 100.865 492.033C115.396 510.037 131.538 528.578 151.123 542.222C167.487 553.627 184.071 561.151 201.856 565.211C245.512 575.124 285.315 562.136 331.404 547.089C338.417 544.79 345.682 542.431 353.2 540.072C385.453 529.951 415.937 520.367 447.937 517.262C473.114 514.784 498.859 516.277 526.626 521.89C554.867 527.622 583.645 537.594 611.475 547.208C627.112 552.642 643.317 558.225 659.459 563.121C701.157 575.631 735.874 581.334 768.916 580.975C781.868 580.856 795.041 579.751 808.119 577.721C868.486 568.376 923.736 539.505 969.856 512.485C1009.03 489.615 1041.88 470.985 1074.99 454.325C1115.45 433.963 1154.94 421.154 1199.26 413.989C1234.67 408.376 1261.02 397.717 1286.51 387.417C1295.07 383.953 1303.88 380.4 1312.98 377.056C1328.43 371.354 1341.88 363.173 1355.25 351.32C1372.4 336.123 1384.02 317.164 1396.34 297.101C1405.85 281.605 1415.71 265.543 1428.53 250.794C1431.16 247.808 1434.03 244.613 1437.6 240.792C1438.36 239.986 1439.15 239.18 1439.91 238.373V236.313L1439.94 236.373Z" fill="url(#paint22_linear_110_164)"/>
<path d="M1439.94 188.842C1431.91 196.037 1423.92 203.412 1416.62 211.174C1413.24 214.757 1410.34 218.071 1407.68 221.266C1394.73 236.91 1386.58 254.705 1378.69 271.902C1369.11 292.742 1360.08 312.417 1343.49 326.689C1331.11 337.437 1317.02 344.184 1299.17 347.917C1283.13 351.26 1267.81 355.112 1252.99 358.844C1230.75 364.427 1207.76 370.219 1181.22 374.638C1137.66 382.042 1098.61 395.806 1058.43 417.989C1033.7 431.634 1009.06 446.293 982.966 461.789C974.247 466.954 965.465 472.179 956.62 477.404C913.911 502.662 857.082 532.668 796.115 540.52C783.131 542.192 770.053 542.879 757.291 542.58C725.355 541.804 692.217 534.997 649.793 520.546C635.893 515.769 621.899 510.485 608.348 505.379C579.064 494.332 548.77 482.897 518.823 476.538C490.898 470.596 465.185 469.253 440.292 472.418C407.976 476.478 376.956 488.391 346.977 499.885C341.449 502.005 336.016 504.155 330.614 506.275C286.01 523.771 243.901 540.281 199.108 529.951C181.576 525.89 165.465 518.217 149.828 506.424C130.622 491.944 115.112 472.179 102.507 454.743C95.8105 445.487 89.3347 435.993 83.08 426.827C75.846 416.228 69.0227 406.226 61.9467 396.642C55.155 387.446 47.1629 378.519 38.1915 370.07C26.8825 359.411 13.8045 350.156 0.094768 342.901V344.453C13.4571 351.589 26.1244 360.635 37.1807 371.025C46.0889 379.415 54.0178 388.312 60.7779 397.418C67.8539 406.972 74.6772 416.974 81.8796 427.543C88.1343 436.709 94.6101 446.204 101.339 455.489C114.006 472.985 129.579 492.869 148.944 507.469C164.738 519.352 181.039 527.144 198.76 531.235C244.028 541.684 286.357 525.084 331.183 507.499C336.584 505.379 342.018 503.259 347.546 501.139C377.461 489.675 408.387 477.792 440.513 473.761C465.248 470.626 490.772 471.94 518.539 477.851C548.359 484.181 578.59 495.586 607.842 506.633C621.394 511.738 635.388 517.023 649.319 521.8C691.901 536.31 725.197 543.147 757.26 543.924C770.117 544.222 783.258 543.565 796.304 541.864C857.556 533.981 914.575 503.886 957.378 478.568C966.255 473.343 975.037 468.118 983.755 462.923C1009.82 447.428 1034.46 432.798 1059.19 419.154C1099.25 397.06 1138.1 383.326 1181.5 375.952C1208.1 371.503 1231.1 365.711 1253.37 360.128C1268.19 356.396 1283.51 352.574 1299.49 349.2C1317.62 345.409 1331.93 338.571 1344.51 327.644C1361.31 313.194 1370.41 293.369 1380.04 272.38C1387.91 255.272 1396.03 237.567 1408.85 222.042C1411.51 218.877 1414.41 215.593 1417.76 212.01C1424.71 204.606 1432.29 197.56 1439.97 190.663V188.752L1439.94 188.842Z" fill="url(#paint23_linear_110_164)"/>
<path d="M1439.94 145.251C1437.95 146.864 1435.93 148.446 1433.93 150.028C1421.11 160.209 1407.84 170.719 1396.75 182.393C1393.47 185.856 1390.59 189.17 1387.94 192.514C1375.12 208.845 1368.83 228.192 1362.73 246.942C1355.62 268.737 1348.93 289.338 1332.72 302.983C1321.03 312.865 1305.71 318.418 1285.84 320.001C1242.69 323.404 1205.7 329.107 1163.37 336.571C1120.6 344.214 1082.19 358.904 1042.51 382.819C1027.73 391.716 1013.16 400.822 997.749 410.466C980.312 421.363 962.306 432.619 944.111 443.487C901.97 468.656 845.71 498.363 784.3 504.663C771.349 506.006 758.365 506.275 745.635 505.528C706.59 503.2 670.136 490.929 639.653 479.225C627.901 474.717 616.055 469.85 604.588 465.133C573.915 452.563 542.199 439.546 510.673 432.5C482.78 426.29 457.256 425.125 432.711 428.917C399.984 433.963 368.774 448.324 341.26 460.953C337.501 462.684 333.773 464.416 330.045 466.148C284.936 487.107 242.29 506.902 195.886 496.004C178.417 491.914 162.59 483.942 147.554 471.731C128.442 456.086 113.658 434.978 102.886 418.318C96.2211 408.017 89.8717 397.359 83.7433 387.058C77.7098 376.937 71.9921 367.383 66.0217 358.098C59.8934 348.573 52.4383 339.258 43.8776 330.361C30.9891 317.015 15.7947 305.58 0 297.131V298.713C15.4156 307.043 30.231 318.269 42.8036 331.286C51.3011 340.124 58.693 349.379 64.7897 358.814C70.7601 368.07 76.4462 377.624 82.4798 387.715C88.6397 398.016 94.9892 408.674 101.654 419.005C112.458 435.754 127.337 456.982 146.606 472.746C161.832 485.136 177.848 493.168 195.538 497.318C242.48 508.335 285.346 488.421 330.709 467.372C334.436 465.64 338.164 463.909 341.891 462.177C369.311 449.578 400.395 435.276 432.932 430.26C457.287 426.469 482.59 427.633 510.294 433.813C541.694 440.83 573.347 453.817 603.957 466.357C615.424 471.074 627.27 475.941 639.052 480.449C669.662 492.183 706.243 504.483 745.508 506.842C758.302 507.618 771.38 507.32 784.395 505.976C846.089 499.647 902.539 469.85 944.837 444.591C963.033 433.724 981.07 422.468 998.507 411.57C1013.92 401.927 1028.49 392.82 1043.27 383.923C1082.79 360.098 1121.04 345.468 1163.62 337.855C1205.89 330.391 1242.85 324.718 1285.94 321.285C1306.12 319.702 1321.73 314 1333.67 303.938C1350.19 290.055 1356.95 269.275 1364.09 247.271C1370.16 228.64 1376.41 209.383 1389.08 193.26C1391.67 189.946 1394.54 186.662 1397.8 183.229C1408.82 171.615 1422.03 161.135 1434.82 150.984C1436.49 149.64 1438.2 148.297 1439.91 146.953V145.132L1439.94 145.251Z" fill="url(#paint24_linear_110_164)"/>
<path d="M1439.94 104.109C1432.26 110.289 1424.21 116.052 1416.24 121.754C1398.68 134.324 1380.52 147.341 1368.23 163.822C1355.63 180.751 1351.3 201.68 1347.1 221.893C1339.32 259.571 1332.56 292.204 1276.94 292.204C1275.51 292.204 1274.06 292.204 1272.58 292.145C1182.23 289.517 1111.69 291.966 1026.69 347.708C1017.4 353.798 1007.89 360.128 998.697 366.278C916.596 421.124 831.716 477.822 734.073 468.477C687.763 464.058 643.601 444.353 600.892 425.304C542.01 399.031 486.444 374.22 425.256 385.476C391.582 391.656 360.087 408.824 329.572 425.394C284.02 450.175 240.995 473.582 192.821 462.087C137.414 448.891 110.752 397.239 84.9437 347.319C80.1738 338.094 75.2458 328.54 70.2863 319.553C54.2705 290.682 27.9566 265.513 0.0631787 250.824V252.406C27.4195 267.006 53.228 291.786 68.9911 320.21C73.9507 329.167 78.8786 338.691 83.6486 347.917C109.583 398.135 136.403 450.055 192.474 463.431C241.248 475.045 284.494 451.518 330.298 426.588C360.687 410.048 392.118 392.97 425.508 386.819C486.192 375.653 541.599 400.374 600.229 426.528C643.064 445.637 687.353 465.372 733.884 469.85C832.032 479.225 917.165 422.378 999.487 367.383C1008.68 361.232 1018.22 354.873 1027.47 348.812C1112.13 293.339 1182.42 290.891 1272.48 293.488C1273.93 293.518 1275.36 293.548 1276.78 293.548C1333.73 293.548 1340.9 258.825 1348.52 222.102C1352.66 202.008 1356.95 181.258 1369.4 164.568C1381.56 148.267 1398.81 135.906 1417.1 122.829C1424.77 117.336 1432.51 111.782 1439.91 105.871V104.05L1439.94 104.109Z" fill="url(#paint25_linear_110_164)"/>
<path d="M1439.94 45.2324C1437.95 49.1138 1435.83 52.9354 1433.52 56.6973C1420.54 77.8356 1399.16 92.6444 1378.46 106.946C1360.55 119.336 1343.62 131.07 1331.52 146.625C1319.08 162.598 1314.5 182.333 1310.07 201.411C1302.49 234.104 1295.35 265.005 1248 267.513C1244.02 267.722 1239.79 267.782 1235.4 267.633C1150.86 264.856 1079.69 266.946 997.37 319.583C987.672 325.763 977.753 332.242 968.119 338.512C927.495 364.994 885.449 392.403 841.477 411.66C795.356 431.873 753.216 440.113 712.656 436.829C667.988 433.216 625.374 415.183 584.182 397.747C527.258 373.653 473.524 350.932 414.294 362.427C397.868 365.591 380.778 371.593 360.466 381.296C347.641 387.417 334.847 394.373 322.464 401.121C278.65 424.946 237.268 447.458 191.021 437.784C183.566 436.232 176.3 433.873 169.445 430.768C128.221 412.347 105.129 369.771 82.7641 328.599C78.3416 320.449 73.7611 312.029 69.1807 304.057C65.5163 297.728 61.2833 291.398 56.5765 285.248C41.1925 265.244 21.0385 248.136 0.094768 237.03V238.612C20.5963 249.629 40.308 266.438 55.4077 286.054C60.0829 292.145 64.2843 298.415 67.9171 304.714C72.4975 312.656 77.078 321.076 81.5005 329.226C103.961 370.607 127.179 413.362 168.845 431.992C175.826 435.127 183.187 437.516 190.736 439.098C237.552 448.921 279.155 426.26 323.222 402.285C335.574 395.567 348.336 388.611 361.129 382.49C381.315 372.847 398.31 366.905 414.61 363.74C473.366 352.305 526.91 374.966 583.582 398.941C624.9 416.437 667.609 434.5 712.529 438.113C753.374 441.427 795.767 433.157 842.109 412.824C886.207 393.477 928.253 366.069 968.94 339.557C978.543 333.287 988.494 326.808 998.16 320.628C1080.1 268.2 1151.05 266.17 1235.3 268.917C1239.76 269.066 1244.05 269.036 1248.06 268.797C1296.52 266.229 1303.79 234.85 1311.49 201.62C1315.89 182.661 1320.43 163.076 1332.69 147.341C1344.66 131.965 1361.5 120.291 1379.32 107.961C1400.13 93.5699 1421.65 78.6716 1434.79 57.2944C1436.62 54.3088 1438.29 51.2933 1439.94 48.2479V45.1429V45.2324Z" fill="url(#paint26_linear_110_164)"/>
<path d="M1416.18 0.0895692C1410.5 15.4059 1403.86 30.5132 1394.76 44.5756C1381.84 64.6391 1360.9 78.6119 1340.62 92.1368C1323.15 103.781 1306.69 114.798 1294.75 129.427C1282.46 144.415 1277.66 163.016 1273.02 180.96C1264.96 212.1 1257.32 241.538 1210.31 243.121C1206.43 243.27 1202.32 243.27 1198.15 243.121C1116.56 240.105 1047.82 241.777 967.992 291.488C957.852 297.788 947.428 304.386 937.351 310.805C898.18 335.675 857.682 361.412 815.479 379.893C770.748 399.478 730.124 407.749 691.175 405.211C648.119 402.434 607.052 386.073 567.376 370.249C512.411 348.364 460.541 327.674 403.27 339.467C387.759 342.632 371.554 348.364 352.348 357.56C339.838 363.531 327.36 370.339 315.293 376.907C273.216 399.807 233.445 421.423 189.22 413.511C182.018 412.227 174.942 410.197 168.213 407.48C126.642 390.79 103.139 349.678 80.4265 309.939C76.383 302.893 72.2132 295.578 68.0434 288.622C64.3475 282.501 60.2093 276.44 55.692 270.588C40.6555 251.152 20.7542 234.283 0.0315893 223.266V224.848C20.3119 235.776 39.771 252.316 54.5232 271.395C59.0089 277.187 63.1155 283.188 66.7799 289.279C70.9497 296.205 75.1195 303.49 79.1313 310.566C101.97 350.514 125.599 391.835 167.645 408.704C174.468 411.451 181.639 413.541 188.936 414.825C233.761 422.856 273.722 401.091 316.02 378.071C328.087 371.503 340.533 364.726 353.011 358.754C372.122 349.618 388.201 343.916 403.585 340.781C460.383 329.077 512.095 349.678 566.839 371.503C606.642 387.357 647.803 403.778 691.112 406.554C730.314 409.152 771.191 400.792 816.142 381.117C858.44 362.606 899.001 336.84 938.204 311.94C948.281 305.55 958.705 298.922 968.814 292.652C1048.26 243.18 1116.78 241.538 1198.09 244.524C1202.32 244.673 1206.46 244.673 1210.38 244.524C1258.49 242.912 1266.23 212.995 1274.44 181.318C1279.05 163.494 1283.82 145.072 1295.92 130.293C1307.7 115.843 1324.1 104.885 1341.47 93.3012C1361.85 79.6867 1382.92 65.6243 1396 45.322C1405.22 31.0208 1411.95 15.6447 1417.7 0.119426H1416.15L1416.18 0.0895692Z" fill="url(#paint27_linear_110_164)"/>
<path d="M1373.57 0.0895692C1368.67 11.226 1363.05 22.1534 1356.07 32.4539C1343.18 51.4426 1322.68 64.6092 1302.87 77.328C1285.88 88.2256 1269.83 98.5261 1258.11 112.23C1246.01 126.263 1240.96 143.699 1236.09 160.538C1227.53 190.125 1219.44 218.071 1172.75 218.728C1169 218.788 1165.05 218.728 1161 218.579C1082.38 215.354 1016.04 216.578 938.74 263.333C928.063 269.752 917.102 276.53 906.488 283.068C868.865 306.327 829.947 330.361 789.607 347.976C746.267 366.905 707.096 375.235 669.852 373.444C628.407 371.473 588.92 356.784 550.76 342.602C497.753 322.897 447.716 304.266 392.371 316.328C377.714 319.463 362.456 324.987 344.355 333.645C332.162 339.497 319.968 346.125 308.186 352.544C267.846 374.489 229.781 395.269 187.451 389.059C180.533 388.043 173.678 386.342 167.076 383.983C125.031 368.965 101.086 329.256 77.8993 290.891C74.3297 284.979 70.6338 278.859 66.9694 273.007C63.2735 267.095 59.1984 261.303 54.9023 255.75C40.2132 236.881 20.5647 220.31 0.0631787 209.353V210.935C20.1224 221.803 39.3287 238.075 53.7335 256.556C57.998 262.049 62.0415 267.812 65.7058 273.694C69.3702 279.545 73.0662 285.636 76.6042 291.548C99.9171 330.152 123.988 370.07 166.507 385.267C173.204 387.655 180.186 389.387 187.198 390.432C230.002 396.672 268.32 375.802 308.881 353.738C320.663 347.319 332.825 340.721 344.987 334.869C362.993 326.241 378.124 320.777 392.687 317.672C447.558 305.7 497.406 324.24 550.192 343.886C588.478 358.127 628.059 372.847 669.757 374.817C707.254 376.608 746.646 368.249 790.207 349.2C830.642 331.525 869.591 307.461 907.278 284.173C917.892 277.635 928.853 270.857 939.499 264.438C1016.45 217.892 1082.54 216.668 1160.91 219.892C1164.95 220.042 1168.93 220.101 1172.72 220.042C1220.52 219.355 1228.73 190.932 1237.45 160.836C1242.28 144.147 1247.31 126.86 1259.18 113.036C1270.81 99.5114 1286.76 89.2706 1303.66 78.4029C1323.63 65.5945 1344.25 52.3681 1357.27 33.1107C1364.44 22.5714 1370.16 11.4051 1375.15 0H1373.57V0.0895692Z" fill="url(#paint28_linear_110_164)"/>
<path d="M1329.75 0.0895692C1326.06 7.01625 1322.01 13.8235 1317.34 20.3322C1304.51 38.246 1284.45 50.6066 1265.03 62.5193C1248.51 72.6705 1232.93 82.2543 1221.37 95.0329C1209.46 108.11 1204.19 124.382 1199.1 140.116C1190.07 168.002 1181.54 194.335 1135.76 194.335C1135.54 194.335 1135.32 194.335 1135.07 194.335C1131.4 194.335 1127.58 194.246 1123.76 194.067C1048.07 190.603 984.198 191.439 909.362 235.238C898.085 241.807 886.523 248.763 875.309 255.481C839.297 277.097 802.053 299.43 763.641 316.209C721.09 334.78 684.446 342.93 648.403 341.856C608.569 340.721 570.661 327.704 534.018 315.104C482.969 297.579 434.764 281.038 381.378 293.369C367.637 296.504 353.295 301.759 336.269 309.909C324.359 315.612 312.45 322.121 300.92 328.39C262.349 349.379 225.927 369.204 185.619 364.815C178.954 364.099 172.288 362.695 165.844 360.695C123.262 347.499 98.8431 309.193 75.2142 272.111C72.0869 267.215 68.9911 262.348 65.8638 257.541C62.1046 251.809 58.156 246.285 54.081 241.09C39.771 222.818 20.3435 206.546 0.0631787 195.619V197.201C19.9013 208.039 38.8865 224.012 52.8806 241.926C56.924 247.091 60.8727 252.615 64.6002 258.288C67.7275 263.065 70.8233 267.931 73.9507 272.828C97.7058 310.118 122.282 348.663 165.37 362.009C171.941 364.039 178.669 365.442 185.461 366.189C226.243 370.667 262.887 350.723 301.647 329.585C313.145 323.315 325.023 316.836 336.932 311.133C353.864 303.012 368.079 297.817 381.726 294.683C434.638 282.412 482.685 298.892 533.512 316.358C570.282 328.988 608.284 342.035 648.371 343.199C684.573 344.274 721.469 336.093 764.241 317.433C802.748 300.624 840.055 278.262 876.099 256.616C887.313 249.898 898.875 242.941 910.152 236.403C984.64 192.813 1048.26 191.977 1123.7 195.44C1127.55 195.619 1131.37 195.709 1135.07 195.709C1135.32 195.709 1135.54 195.709 1135.76 195.709C1182.61 195.709 1191.3 168.898 1200.49 140.504C1205.54 124.919 1210.76 108.797 1222.48 95.9286C1233.91 83.2993 1249.42 73.7751 1265.85 63.6837C1285.37 51.6814 1305.56 39.2612 1318.57 21.1085C1323.44 14.3609 1327.61 7.28496 1331.43 0.0895692H1329.75Z" fill="url(#paint29_linear_110_164)"/>
<path d="M1284.36 0.0895692C1282.53 2.83636 1280.63 5.52343 1278.61 8.21051C1265.82 25.0794 1246.2 36.5741 1227.18 47.7404C1211.17 57.1451 1196 66.0125 1184.63 77.8655C1172.91 90.017 1167.42 105.124 1162.14 119.754C1152.54 146.207 1143.47 171.137 1097.41 169.972C1093.81 169.883 1090.15 169.763 1086.55 169.584C1001.38 165.255 946.069 169.883 880.016 207.173C868.044 213.891 855.724 221.057 843.783 228.013C809.509 247.957 774.034 268.558 737.643 284.412C697.24 301.997 662.65 310.238 628.944 310.238C628.28 310.238 627.617 310.238 626.954 310.238C588.731 309.909 552.403 298.564 517.275 287.577C468.186 272.231 421.812 257.75 370.385 270.379C357.497 273.514 344.103 278.53 328.182 286.173C316.525 291.786 304.869 298.116 293.591 304.266C256.821 324.3 222.105 343.199 183.787 340.542C177.279 340.094 170.835 339.019 164.612 337.377C121.429 326.181 96.5054 289.219 72.4028 253.451C69.844 249.629 67.2537 245.838 64.695 242.076C60.8727 236.522 57.0188 231.238 53.1965 226.401C39.2971 208.756 20.0908 192.693 0.0315893 181.766V183.348C19.6486 194.186 38.4126 209.92 52.0277 227.207C55.85 232.044 59.7039 237.299 63.4946 242.822C66.0533 246.584 68.6121 250.376 71.2024 254.197C95.463 290.174 120.513 327.375 164.233 338.691C170.551 340.363 177.09 341.438 183.692 341.886C222.452 344.602 257.358 325.584 294.318 305.431C305.564 299.31 317.22 292.951 328.845 287.368C344.671 279.784 357.97 274.798 370.764 271.693C421.781 259.153 467.964 273.574 516.833 288.861C552.087 299.878 588.509 311.253 626.954 311.581C627.617 311.581 628.28 311.581 628.944 311.581C662.871 311.581 697.682 303.311 738.275 285.636C774.76 269.752 810.267 249.122 844.573 229.148C856.482 222.221 868.802 215.056 880.774 208.338C946.48 171.226 1001.6 166.628 1086.45 170.958C1090.05 171.137 1093.75 171.286 1097.35 171.346C1098.46 171.346 1099.53 171.376 1100.57 171.376C1144.92 171.376 1153.93 146.475 1163.47 120.172C1168.71 105.692 1174.14 90.7037 1185.67 78.7612C1196.92 67.0574 1211.96 58.2498 1227.91 48.9048C1247.02 37.7086 1266.8 26.0945 1279.75 9.01663C1281.96 6.0907 1284.01 3.10506 1286 0.0895692H1284.3H1284.36Z" fill="url(#paint30_linear_110_164)"/>
<path d="M1236.34 0.0895692C1223.74 13.7041 1206.33 23.4671 1189.37 32.9017C1173.83 41.5601 1159.14 49.7109 1147.96 60.6383C1136.43 71.8345 1130.74 85.8371 1125.24 99.3621C1114.69 125.307 1105.66 147.759 1059.79 145.58C1056.35 145.43 1052.87 145.251 1049.37 145.042C981.986 141.251 920.545 141.161 850.733 179.019C837.939 185.946 824.735 193.35 812.004 200.516C779.562 218.758 746.014 237.627 711.739 252.525C671.905 269.842 638.168 278.082 605.568 278.5C568.987 278.918 534.239 269.305 500.628 259.93C453.497 246.763 408.956 234.343 359.455 247.3C347.42 250.435 334.942 255.183 320.158 262.318C308.723 267.812 297.319 274.052 286.231 280.083C251.293 299.131 218.346 317.105 182.018 316.179C175.763 316 169.508 315.283 163.443 314C119.471 304.744 93.9783 269.066 69.3386 234.522C67.4433 231.865 65.5479 229.207 63.6525 226.55C59.6091 220.967 55.9447 216.101 52.4067 211.652C38.9181 194.664 19.9013 178.78 0.0631787 167.793V169.405C19.4906 180.303 38.0336 195.828 51.2379 212.488C54.7443 216.907 58.4087 221.773 62.4205 227.327C64.3159 229.954 66.2113 232.611 68.1066 235.268C92.9359 270.021 118.586 305.968 163.127 315.313C169.287 316.627 175.605 317.373 181.986 317.523C218.693 318.538 253.41 299.579 286.989 281.247C298.045 275.216 309.449 269.006 320.821 263.513C335.51 256.437 347.925 251.689 359.834 248.614C408.924 235.776 453.275 248.136 500.217 261.243C533.102 270.409 567.092 279.904 602.914 279.904C603.799 279.904 604.683 279.904 605.599 279.904C638.421 279.486 672.348 271.186 712.34 253.809C746.677 238.881 780.257 219.982 812.731 201.71C825.493 194.544 838.665 187.11 851.459 180.213C920.924 142.534 982.144 142.594 1049.27 146.416C1052.78 146.625 1056.25 146.774 1059.7 146.953C1106.54 149.133 1116.27 125.218 1126.57 99.8398C1132 86.4342 1137.66 72.6107 1148.97 61.5937C1160.02 50.8156 1174.62 42.6946 1190.07 34.096C1207.47 24.3927 1225.38 14.3311 1238.21 0.0895692H1236.31H1236.34Z" fill="url(#paint31_linear_110_164)"/>
<path d="M1182.64 0.0895692C1172.91 6.80726 1162.11 12.5098 1151.49 18.093C1136.46 25.9751 1122.24 33.4392 1111.28 43.4112C1099.97 53.6818 1094.1 66.5499 1088.41 78.9702C1077.29 103.273 1067.72 124.203 1022.2 121.127C950.429 116.201 890.093 115.276 821.449 150.864C807.645 158.03 793.398 165.763 779.625 173.227C749.204 189.737 717.741 206.815 685.805 220.669C647.297 237.358 615.013 245.658 584.182 246.793C549.181 248.107 516.075 240.045 483.98 232.283C438.776 221.325 396.099 210.965 348.494 224.221C337.343 227.356 325.781 231.865 312.103 238.463C300.888 243.867 289.643 250.017 278.744 255.959C239.953 277.127 203.341 297.131 162.243 290.562C117.354 283.367 91.1984 248.853 65.927 215.474C61.2517 209.293 56.4186 202.904 51.5538 196.843C38.4758 180.512 19.7118 164.807 0.0315893 153.671V155.313C19.2695 166.33 37.5913 181.706 50.385 197.709C55.2182 203.74 60.0513 210.129 64.7266 216.31C90.1876 249.928 116.501 284.681 161.99 291.966C203.625 298.624 242.164 277.545 279.471 257.183C290.338 251.242 301.552 245.121 312.766 239.717C326.349 233.178 337.816 228.67 348.904 225.565C396.099 212.428 438.586 222.729 483.601 233.656C515.791 241.449 549.086 249.51 584.213 248.226C615.234 247.091 647.708 238.732 686.405 221.982C718.405 208.099 749.899 190.991 780.352 174.481C794.124 167.017 808.34 159.284 822.144 152.118C890.409 116.738 950.555 117.664 1022.07 122.56C1068.6 125.785 1078.87 103.303 1089.74 79.5673C1095.36 67.2664 1101.17 54.5178 1112.26 44.4562C1123.1 34.6036 1137.22 27.1992 1152.19 19.3469C1163.47 13.4354 1174.97 7.37453 1185.14 0.119426H1182.61L1182.64 0.0895692Z" fill="url(#paint32_linear_110_164)"/>
<path d="M1120.09 0.0895692C1117.92 1.1644 1115.74 2.23923 1113.56 3.31406C1099.02 10.4497 1085.32 17.1973 1074.54 26.2438C1063.46 35.559 1057.39 47.2627 1051.48 58.5782C1039.92 80.8511 1029.88 100.049 986.377 96.7646C916.818 91.4501 858.377 90.017 792.103 122.799C776.782 130.353 760.956 138.623 745.666 146.625C717.963 161.105 689.279 176.093 660.375 188.663C622.942 204.934 591.921 213.354 562.733 215.175C529.406 217.265 497.816 210.876 467.301 204.695C424.055 195.948 383.179 187.677 337.532 201.202C326.887 204.367 315.799 208.875 302.594 215.324C292.233 220.4 281.84 226.102 271.763 231.596C235.53 251.421 198.065 271.902 157.852 266.08C114.385 259.721 88.2606 227.565 62.9892 196.455C58.3771 190.782 53.6071 184.901 48.8371 179.347C36.1382 164.509 18.4166 150.237 0 139.788V141.4C18.0375 151.7 35.2853 165.703 47.6999 180.183C52.4383 185.737 57.2083 191.618 61.8203 197.291C87.2498 228.61 113.532 261.005 157.599 267.424C198.318 273.335 236.004 252.705 272.458 232.79C282.504 227.297 292.896 221.624 303.226 216.548C316.336 210.129 327.36 205.651 337.911 202.516C383.179 189.11 423.866 197.321 466.922 206.039C497.564 212.249 529.248 218.668 562.764 216.548C592.142 214.697 623.321 206.248 660.912 189.917C689.88 177.317 718.563 162.329 746.298 147.819C761.588 139.817 777.414 131.547 792.703 123.994C858.63 91.3605 916.881 92.8235 986.188 98.1081C1030.73 101.452 1041.41 80.9108 1052.71 59.1455C1058.53 47.9494 1064.56 36.3949 1075.43 27.229C1086.07 18.302 1099.69 11.6141 1114.16 4.50832C1117.13 3.04535 1120.13 1.55253 1123.1 0.0597128H1120L1120.09 0.0895692Z" fill="url(#paint33_linear_110_164)"/>
<path d="M1051.8 0.0895692C1046.81 2.83636 1042.1 5.76228 1037.84 9.04649C1026.97 17.4063 1020.71 27.9456 1014.62 38.1266C1002.58 58.3394 992.158 75.8054 950.618 72.3122C883.301 66.6096 826.725 64.6391 762.788 94.6448C745.54 102.706 727.755 111.663 710.507 120.291C685.899 132.652 660.438 145.43 634.946 156.567C598.049 172.63 569.177 180.93 541.315 183.497C509.662 186.393 479.653 181.646 450.654 177.048C409.335 170.51 370.29 164.33 326.539 178.153C316.43 181.378 305.785 185.826 293.086 192.186C283.641 196.903 274.101 202.128 264.877 207.173C229.433 226.58 192.821 246.673 153.493 241.568C111.384 236.074 85.2912 206.218 60.0513 177.377C55.5341 172.212 50.8588 166.867 46.1836 161.792C33.7058 148.237 17.4057 135.578 0 125.815V127.427C16.8371 136.981 33.0424 149.64 45.078 162.687C49.7216 167.763 54.3968 173.077 58.9141 178.243C84.3435 207.293 110.626 237.328 153.271 242.912C193.106 248.047 229.939 227.894 265.603 208.338C274.796 203.292 284.336 198.067 293.749 193.38C306.385 187.08 316.936 182.632 326.981 179.437C370.385 165.703 409.24 171.853 450.369 178.362C479.463 182.96 509.536 187.737 541.41 184.811C569.461 182.243 598.46 173.913 635.514 157.761C661.07 146.625 686.531 133.816 711.171 121.456C728.387 112.797 746.172 103.87 763.388 95.8092C826.977 65.9528 883.364 67.9233 950.428 73.596C992.979 77.1788 1004.07 58.4887 1015.85 38.6939C1021.85 28.6024 1028.08 18.1825 1038.69 10.0019C1043.49 6.2997 1048.89 3.04535 1054.67 0H1051.74L1051.8 0.0895692Z" fill="url(#paint34_linear_110_164)"/>
<path d="M991.526 0.0895692C986.125 5.67271 981.892 11.7336 977.785 17.7048C965.781 35.1111 954.409 51.5918 914.827 47.9195C849.753 41.7989 795.104 39.291 733.473 66.5797C713.761 75.268 693.386 85.0907 673.674 94.6149C652.731 104.706 631.092 115.156 609.548 124.591C585.382 135.16 553.351 147.789 519.929 151.909C489.919 155.582 461.552 152.477 434.101 149.461C394.677 145.132 357.465 141.042 315.609 155.223C306.006 158.508 295.866 162.926 283.609 169.136C275.112 173.466 266.519 178.183 258.211 182.751C223.526 201.799 187.641 221.505 149.165 217.146C108.415 212.488 82.2902 184.96 57.0188 158.328C52.6278 153.701 48.079 148.894 43.5301 144.326C31.4946 132.204 16.2053 120.859 0.0315893 111.872V113.454C15.7947 122.292 30.6733 133.428 42.4561 145.281C46.9734 149.849 51.5222 154.626 55.9131 159.254C81.3426 186.065 107.656 213.802 148.975 218.519C152.703 218.937 156.399 219.146 160.095 219.146C194.875 219.146 227.412 201.262 258.938 183.945C267.246 179.377 275.807 174.66 284.304 170.361C296.466 164.18 306.575 159.762 316.083 156.537C357.591 142.475 394.646 146.565 433.911 150.864C461.457 153.88 489.919 157.015 520.087 153.313C553.73 149.192 585.888 136.503 610.148 125.875C631.724 116.44 653.394 105.99 674.338 95.8689C694.049 86.3745 714.393 76.5219 734.105 67.8636C795.388 40.7241 849.848 43.232 914.701 49.3228C955.167 53.0847 966.76 36.2755 979.017 18.511C983.313 12.271 987.767 5.91156 993.548 0.149282H991.526V0.0895692Z" fill="url(#paint35_linear_110_164)"/>
<path d="M938.74 0.0895692C926.989 14.4505 914.448 27.1096 879.1 23.4671C816.3 16.9584 763.514 13.8832 704.19 38.4252C681.066 47.9195 657.153 59.0261 633.998 69.7744C617.698 77.3579 600.829 85.1803 584.119 92.4951C559.068 103.482 529.311 115.365 498.48 120.202C470.144 124.65 443.388 123.158 417.516 121.725C380.02 119.635 344.577 117.634 304.616 132.144C295.581 135.458 285.884 139.847 274.101 145.938C266.614 149.819 259.033 153.999 251.704 158.06C217.714 176.81 182.586 196.186 144.774 192.604C105.319 188.812 79.1313 163.553 53.8598 139.131C49.6269 135.04 45.2359 130.801 40.8766 126.74C29.3149 116.052 15.0365 105.93 0.0631787 97.7498V99.3621C14.6575 107.423 28.5568 117.306 39.8342 127.726C44.1935 131.756 48.5844 135.996 52.8174 140.086C78.31 164.688 104.655 190.096 144.648 193.947C147.807 194.246 150.934 194.395 154.03 194.395C188.715 194.395 221.094 176.541 252.462 159.224C259.791 155.194 267.372 151.014 274.827 147.132C286.547 141.042 296.213 136.683 305.185 133.398C344.829 119.008 380.115 120.978 417.485 123.068C443.451 124.501 470.271 126.024 498.764 121.545C529.753 116.679 559.637 104.766 584.782 93.7491C601.493 86.4044 618.361 78.582 634.693 71.0284C657.816 60.3099 681.73 49.2033 704.821 39.709C763.83 15.3163 816.395 18.3617 878.974 24.8405C915.838 28.6323 928.411 15.1073 940.604 0.0895692H938.74Z" fill="url(#paint36_linear_110_164)"/>
<path d="M840.182 0.0895692C841.193 0.208995 842.172 0.298564 843.151 0.417989C853.67 1.61225 862.168 1.34354 869.276 0.0895692H840.182Z" fill="url(#paint37_linear_110_164)"/>
<path d="M708.738 0.0895692C697.619 2.59751 686.373 5.91156 674.906 10.3303C646.792 21.0189 617.698 34.0661 589.584 46.6954C579.475 51.2336 569.05 55.921 558.752 60.4592C532.975 71.8046 505.24 83.0605 477.125 88.554C450.496 93.7789 425.414 93.8685 401.121 93.9879C365.489 94.1372 331.814 94.2865 293.718 109.125C285.125 112.499 276.186 116.709 264.656 122.829C258.274 126.203 251.799 129.816 245.512 133.279C212.154 151.79 177.658 170.928 140.446 168.121C102.223 165.166 75.9724 142.176 50.5745 119.933C46.5311 116.41 42.3613 112.738 38.2231 109.245C27.1668 99.9293 13.8677 91.0321 0.094768 83.6875V85.2699C13.5202 92.525 26.4403 101.183 37.2438 110.289C41.382 113.783 45.5518 117.425 49.5953 120.978C75.1826 143.37 101.623 166.539 140.351 169.525C142.879 169.704 145.374 169.823 147.87 169.823C182.65 169.823 214.934 151.909 246.271 134.533C252.525 131.07 259.001 127.457 265.382 124.083C276.849 117.992 285.757 113.813 294.286 110.469C332.13 95.7196 365.647 95.6002 401.121 95.4509C425.477 95.3315 450.654 95.2419 477.41 89.9872C505.682 84.4637 533.512 73.178 559.353 61.8027C569.651 57.2646 580.107 52.5771 590.184 48.0389C618.298 35.4097 647.36 22.3624 675.443 11.7037C689.027 6.50869 702.294 2.77664 715.404 0.179138H708.738V0.0895692Z" fill="url(#paint38_linear_110_164)"/>
<path d="M598.871 0.0895692C577.643 8.80763 556.383 18.1825 535.534 27.4082L533.323 28.3934C508.494 39.3507 482.053 50.6066 455.676 56.8764C430.815 62.8178 407.408 64.4898 384.758 66.1319C350.958 68.5503 319.052 70.8492 282.756 86.076C274.764 89.4497 266.235 93.6595 255.147 99.6606C249.998 102.467 244.817 105.333 239.668 108.229C206.784 126.591 172.794 145.52 136.087 143.579C99.001 141.489 72.5923 120.709 47.0365 100.616C43.2142 97.6005 39.3919 94.6149 35.538 91.6591C25.0188 83.6576 12.7305 75.9547 0.094768 69.4161V70.9985C12.4146 77.4176 24.3554 84.9414 34.6219 92.7638C38.4758 95.6897 42.2981 98.7052 46.1204 101.721C71.8658 121.963 98.464 142.863 136.024 145.012C137.856 145.102 139.72 145.162 141.52 145.162C176.553 145.162 208.995 127.039 240.426 109.454C245.576 106.557 250.756 103.691 255.905 100.885C266.93 94.8836 275.427 90.7336 283.356 87.3598C319.431 72.2525 351.21 69.9535 384.885 67.5351C407.597 65.8931 431.068 64.2211 456.055 58.2498C482.527 51.9203 509.062 40.6644 533.955 29.6773L536.166 28.692C558.026 19.0185 580.328 9.19577 602.535 0.119426H598.871V0.0895692Z" fill="url(#paint39_linear_110_164)"/>
<path d="M499.396 0.0895692C477.031 9.97203 455.645 19.0782 434.227 25.2287C411.198 31.8568 389.528 35.0813 368.584 38.1565C336.553 42.9036 306.29 47.3821 271.732 63.0268C262.381 67.2963 253.283 72.2226 245.607 76.4921C241.848 78.582 238.12 80.7018 234.33 82.8216C201.793 101.213 168.15 120.262 131.664 119.037C95.6209 117.813 68.9279 99.2128 43.1195 81.2392C39.6762 78.8507 36.233 76.4622 32.7897 74.1036C22.8707 67.356 11.5617 60.7876 0.0631787 55.085V56.6674C11.2774 62.2804 22.3021 68.6697 31.9368 75.2381C35.3801 77.5968 38.8233 79.9853 42.2665 82.3738C68.2646 100.497 95.1471 119.217 131.633 120.441C132.738 120.471 133.844 120.5 134.918 120.5C170.551 120.5 203.341 101.96 235.088 84.0159C238.847 81.8961 242.606 79.7763 246.334 77.6863C253.978 73.4169 263.076 68.4906 272.363 64.2509C306.732 48.6958 336.9 44.2173 368.806 39.5C389.781 36.3949 411.514 33.1704 434.638 26.5125C457.035 20.0635 479.368 10.4497 502.839 0.0597128H499.396V0.0895692Z" fill="url(#paint40_linear_110_164)"/>
<path d="M393.414 0.0895692C379.041 4.23961 365.204 7.40438 351.684 10.5094C321.706 17.3764 293.37 23.8254 260.96 39.8583C252.778 43.8889 244.533 48.5763 236.099 53.4131L231.202 56.2494C198.097 75.2978 163.886 95.003 126.61 95.003C126.168 95.003 125.694 95.003 125.252 95.003C90.0612 94.5552 62.9892 77.8356 36.77 61.6833C33.927 59.9218 31.0523 58.1602 28.2093 56.4286C19.6802 51.2933 10.614 46.367 1.26357 41.8288C0.884502 41.6497 0.47384 41.4705 0.094768 41.2914V42.8439C0.252715 42.9335 0.442251 42.9932 0.600198 43.0828C9.91905 47.6209 18.9536 52.5174 27.4195 57.6228C30.2942 59.3545 33.1372 61.116 35.9803 62.8776C62.3574 79.1493 89.619 95.9584 125.22 96.4361C125.694 96.4361 126.136 96.4361 126.61 96.4361C164.296 96.4361 198.697 76.6413 231.961 57.4735L236.857 54.6372C245.291 49.8005 253.504 45.1429 261.655 41.1421C293.907 25.2286 322.148 18.7498 352.032 11.9127C366.973 8.50907 382.326 4.98602 398.342 0.149282H393.414V0.0895692Z" fill="url(#paint41_linear_110_164)"/>
<path d="M285.473 0.0895692C274.132 4.68745 262.507 10.0317 250.219 16.63C243.427 20.2725 236.794 24.2135 229.749 28.3934L226.59 30.2744C196.359 48.1882 158.736 70.4909 118.744 70.8492C118.397 70.8492 118.049 70.8492 117.702 70.8492C83.9013 70.8492 57.8717 56.9361 30.3258 42.2169C28.0829 41.0227 25.8085 39.7986 23.5656 38.6043C16.2053 34.6931 8.308 30.8417 0.0631787 27.0797V28.6323C8.05528 32.2748 15.6999 36.0367 22.8391 39.8284C25.1135 41.0227 27.3564 42.2169 29.5992 43.441C56.1027 57.593 83.5222 72.2525 117.733 72.2525C118.081 72.2525 118.428 72.2525 118.744 72.2525C159.179 71.924 196.991 49.5019 227.348 31.4686L230.507 29.5877C237.52 25.4376 244.154 21.4966 250.914 17.8541C264.245 10.6587 276.849 4.98602 289.169 0.119426H285.441L285.473 0.0895692Z" fill="url(#paint42_linear_110_164)"/>
<path d="M228.486 0.0895692C227.348 0.776266 226.274 1.46296 225.106 2.17952C222.452 3.82162 219.799 5.46372 217.114 7.13568C184.766 26.9902 149.67 45.531 112.3 46.6954C78.31 47.7702 51.0484 35.4097 22.2389 22.3027L18.9536 20.8099C12.9832 18.093 6.63376 15.3462 0.094768 12.5994V14.1221C6.41264 16.7793 12.541 19.4365 18.3218 22.0639L21.6071 23.5567C48.2369 35.6485 75.7197 48.1285 108.32 48.1285C109.647 48.1285 111.005 48.1285 112.363 48.0688C150.081 46.8745 185.398 28.2441 217.903 8.27022C220.588 6.62812 223.273 4.95616 225.927 3.31406C227.696 2.20937 229.433 1.13454 231.171 0.0895692H228.486Z" fill="url(#paint43_linear_110_164)"/>
<path d="M179.838 0.0895692C158.579 11.1066 132.991 21.0189 105.824 22.5416C71.2656 24.5121 41.003 13.107 14.2784 3.0155C11.7512 2.06009 9.09773 1.07483 6.41264 0.0597128H2.43238C6.38105 1.52268 10.1718 2.95578 13.773 4.29932C38.5706 13.6444 66.4324 24.124 97.9902 24.124C100.612 24.124 103.266 24.0642 105.951 23.8851C134.381 22.2729 161.074 11.6141 182.934 0.0298564H179.901L179.838 0.0895692Z" fill="url(#paint44_linear_110_164)"/>
<path d="M77.0148 0.0895692C79.9526 0.238851 82.922 0.358277 85.923 0.358277C88.8608 0.358277 91.7986 0.238851 94.768 0.0895692H77.0148Z" fill="url(#paint45_linear_110_164)"/>
</g>
<defs>
<linearGradient id="paint0_linear_110_164" x1="12363.2" y1="-18073.9" x2="-14681.1" y2="16631.2" gradientUnits="userSpaceOnUse">
<stop offset="0.08" stop-color="#8294B6"/>
<stop offset="1" stop-color="#08132B"/>
</linearGradient>
<linearGradient id="paint1_linear_110_164" x1="4464.87" y1="-5179.16" x2="-3629.48" y2="5783.37" gradientUnits="userSpaceOnUse">
<stop offset="0.08" stop-color="#8294B6"/>
<stop offset="1" stop-color="#08132B"/>
</linearGradient>
<linearGradient id="paint2_linear_110_164" x1="3162.59" y1="-2842.38" x2="-1444.77" y2="4094.79" gradientUnits="userSpaceOnUse">
<stop offset="0.08" stop-color="#8294B6"/>
<stop offset="1" stop-color="#08132B"/>
</linearGradient>
<linearGradient id="paint3_linear_110_164" x1="17985.8" y1="-40684.1" x2="-4828.82" y2="-21074.4" gradientUnits="userSpaceOnUse">
<stop offset="0.08" stop-color="#8294B6"/>
<stop offset="1" stop-color="#08132B"/>
</linearGradient>
<linearGradient id="paint4_linear_110_164" x1="2355.85" y1="-1905.61" x2="-998.626" y2="2808.46" gradientUnits="userSpaceOnUse">
<stop offset="0.08" stop-color="#8294B6"/>
<stop offset="1" stop-color="#08132B"/>
</linearGradient>
<linearGradient id="paint5_linear_110_164" x1="10243.7" y1="-15749.5" x2="1098.4" y2="-4750.35" gradientUnits="userSpaceOnUse">
<stop offset="0.08" stop-color="#8294B6"/>
<stop offset="1" stop-color="#08132B"/>
</linearGradient>
<linearGradient id="paint6_linear_110_164" x1="1895.05" y1="-1418.12" x2="-788.272" y2="1988" gradientUnits="userSpaceOnUse">
<stop offset="0.08" stop-color="#8294B6"/>
<stop offset="1" stop-color="#08132B"/>
</linearGradient>
<linearGradient id="paint7_linear_110_164" x1="7579.68" y1="-9364.31" x2="2166.12" y2="-1630.85" gradientUnits="userSpaceOnUse">
<stop offset="0.08" stop-color="#8294B6"/>
<stop offset="1" stop-color="#08132B"/>
</linearGradient>
<linearGradient id="paint8_linear_110_164" x1="1669" y1="-1102.51" x2="-548.596" y2="1626.77" gradientUnits="userSpaceOnUse">
<stop offset="0.08" stop-color="#8294B6"/>
<stop offset="1" stop-color="#08132B"/>
</linearGradient>
<linearGradient id="paint9_linear_110_164" x1="6005.44" y1="-6434.71" x2="2254.05" y2="-554.421" gradientUnits="userSpaceOnUse">
<stop offset="0.08" stop-color="#8294B6"/>
<stop offset="1" stop-color="#08132B"/>
</linearGradient>
<linearGradient id="paint10_linear_110_164" x1="1500.53" y1="-883.974" x2="-382.883" y2="1329.06" gradientUnits="userSpaceOnUse">
<stop offset="0.08" stop-color="#8294B6"/>
<stop offset="1" stop-color="#08132B"/>
</linearGradient>
<linearGradient id="paint11_linear_110_164" x1="4431.6" y1="-4804.52" x2="1380.52" y2="-408.776" gradientUnits="userSpaceOnUse">
<stop offset="0.08" stop-color="#8294B6"/>
<stop offset="1" stop-color="#08132B"/>
</linearGradient>
<linearGradient id="paint12_linear_110_164" x1="3969.44" y1="-35910" x2="-5334.1" y2="-34229.3" gradientUnits="userSpaceOnUse">
<stop offset="0.08" stop-color="#8294B6"/>
<stop offset="1" stop-color="#08132B"/>
</linearGradient>
<linearGradient id="paint13_linear_110_164" x1="1099.67" y1="-1450.01" x2="-267.014" y2="-805.153" gradientUnits="userSpaceOnUse">
<stop offset="0.08" stop-color="#8294B6"/>
<stop offset="1" stop-color="#08132B"/>
</linearGradient>
<linearGradient id="paint14_linear_110_164" x1="1080.04" y1="-1331.9" x2="-279.054" y2="-680.922" gradientUnits="userSpaceOnUse">
<stop offset="0.08" stop-color="#8294B6"/>
<stop offset="1" stop-color="#08132B"/>
</linearGradient>
<linearGradient id="paint15_linear_110_164" x1="1060.21" y1="-1216.13" x2="-290.769" y2="-558.743" gradientUnits="userSpaceOnUse">
<stop offset="0.08" stop-color="#8294B6"/>
<stop offset="1" stop-color="#08132B"/>
</linearGradient>
<linearGradient id="paint16_linear_110_164" x1="1040.05" y1="-1103.57" x2="-302.225" y2="-439.448" gradientUnits="userSpaceOnUse">
<stop offset="0.08" stop-color="#8294B6"/>
<stop offset="1" stop-color="#08132B"/>
</linearGradient>
<linearGradient id="paint17_linear_110_164" x1="1019.56" y1="-994.364" x2="-313.569" y2="-323.292" gradientUnits="userSpaceOnUse">
<stop offset="0.08" stop-color="#8294B6"/>
<stop offset="1" stop-color="#08132B"/>
</linearGradient>
<linearGradient id="paint18_linear_110_164" x1="998.721" y1="-888.316" x2="-324.806" y2="-210.174" gradientUnits="userSpaceOnUse">
<stop offset="0.08" stop-color="#8294B6"/>
<stop offset="1" stop-color="#08132B"/>
</linearGradient>
<linearGradient id="paint19_linear_110_164" x1="979.113" y1="-827.657" x2="-349.199" y2="-153.109" gradientUnits="userSpaceOnUse">
<stop offset="0.08" stop-color="#8294B6"/>
<stop offset="1" stop-color="#08132B"/>
</linearGradient>
<linearGradient id="paint20_linear_110_164" x1="958.02" y1="-738.075" x2="-364.812" y2="-59.5935" gradientUnits="userSpaceOnUse">
<stop offset="0.08" stop-color="#8294B6"/>
<stop offset="1" stop-color="#08132B"/>
</linearGradient>
<linearGradient id="paint21_linear_110_164" x1="935.063" y1="-619.95" x2="-369.79" y2="71.2484" gradientUnits="userSpaceOnUse">
<stop offset="0.08" stop-color="#8294B6"/>
<stop offset="1" stop-color="#08132B"/>
</linearGradient>
<linearGradient id="paint22_linear_110_164" x1="912.254" y1="-498.777" x2="-369.86" y2="207.245" gradientUnits="userSpaceOnUse">
<stop offset="0.08" stop-color="#8294B6"/>
<stop offset="1" stop-color="#08132B"/>
</linearGradient>
<linearGradient id="paint23_linear_110_164" x1="891.119" y1="-394.232" x2="-372.739" y2="323.094" gradientUnits="userSpaceOnUse">
<stop offset="0.08" stop-color="#8294B6"/>
<stop offset="1" stop-color="#08132B"/>
</linearGradient>
<linearGradient id="paint24_linear_110_164" x1="870.135" y1="-308.884" x2="-381.704" y2="415.342" gradientUnits="userSpaceOnUse">
<stop offset="0.08" stop-color="#8294B6"/>
<stop offset="1" stop-color="#08132B"/>
</linearGradient>
<linearGradient id="paint25_linear_110_164" x1="849.006" y1="-234.797" x2="-394.73" y2="494.091" gradientUnits="userSpaceOnUse">
<stop offset="0.08" stop-color="#8294B6"/>
<stop offset="1" stop-color="#08132B"/>
</linearGradient>
<linearGradient id="paint26_linear_110_164" x1="827.289" y1="-110.7" x2="-365.51" y2="644.567" gradientUnits="userSpaceOnUse">
<stop offset="0.08" stop-color="#8294B6"/>
<stop offset="1" stop-color="#08132B"/>
</linearGradient>
<linearGradient id="paint27_linear_110_164" x1="820.464" y1="-32.1483" x2="-344.647" y2="755.19" gradientUnits="userSpaceOnUse">
<stop offset="0.08" stop-color="#8294B6"/>
<stop offset="1" stop-color="#08132B"/>
</linearGradient>
<linearGradient id="paint28_linear_110_164" x1="825.428" y1="-65.1298" x2="-398.922" y2="736.892" gradientUnits="userSpaceOnUse">
<stop offset="0.08" stop-color="#8294B6"/>
<stop offset="1" stop-color="#08132B"/>
</linearGradient>
<linearGradient id="paint29_linear_110_164" x1="831.453" y1="-103.033" x2="-457.955" y2="714.047" gradientUnits="userSpaceOnUse">
<stop offset="0.08" stop-color="#8294B6"/>
<stop offset="1" stop-color="#08132B"/>
</linearGradient>
<linearGradient id="paint30_linear_110_164" x1="839.048" y1="-146.047" x2="-522.178" y2="686.864" gradientUnits="userSpaceOnUse">
<stop offset="0.08" stop-color="#8294B6"/>
<stop offset="1" stop-color="#08132B"/>
</linearGradient>
<linearGradient id="paint31_linear_110_164" x1="848.569" y1="-196.139" x2="-593.066" y2="654.235" gradientUnits="userSpaceOnUse">
<stop offset="0.08" stop-color="#8294B6"/>
<stop offset="1" stop-color="#08132B"/>
</linearGradient>
<linearGradient id="paint32_linear_110_164" x1="860.638" y1="-258.002" x2="-673.015" y2="614.665" gradientUnits="userSpaceOnUse">
<stop offset="0.08" stop-color="#8294B6"/>
<stop offset="1" stop-color="#08132B"/>
</linearGradient>
<linearGradient id="paint33_linear_110_164" x1="877.091" y1="-338.2" x2="-767.948" y2="566.141" gradientUnits="userSpaceOnUse">
<stop offset="0.08" stop-color="#8294B6"/>
<stop offset="1" stop-color="#08132B"/>
</linearGradient>
<linearGradient id="paint34_linear_110_164" x1="897.892" y1="-440.253" x2="-880.739" y2="505.242" gradientUnits="userSpaceOnUse">
<stop offset="0.08" stop-color="#8294B6"/>
<stop offset="1" stop-color="#08132B"/>
</linearGradient>
<linearGradient id="paint35_linear_110_164" x1="918.228" y1="-558.825" x2="-1007.86" y2="418.095" gradientUnits="userSpaceOnUse">
<stop offset="0.08" stop-color="#8294B6"/>
<stop offset="1" stop-color="#08132B"/>
</linearGradient>
<linearGradient id="paint36_linear_110_164" x1="937.301" y1="-698.618" x2="-1149.4" y2="293.056" gradientUnits="userSpaceOnUse">
<stop offset="0.08" stop-color="#8294B6"/>
<stop offset="1" stop-color="#08132B"/>
</linearGradient>
<linearGradient id="paint37_linear_110_164" x1="304.886" y1="9814.8" x2="-81777.4" y2="16927.2" gradientUnits="userSpaceOnUse">
<stop offset="0.08" stop-color="#8294B6"/>
<stop offset="1" stop-color="#08132B"/>
</linearGradient>
<linearGradient id="paint38_linear_110_164" x1="1073" y1="-1091.74" x2="-1518.31" y2="322.739" gradientUnits="userSpaceOnUse">
<stop offset="0.08" stop-color="#8294B6"/>
<stop offset="1" stop-color="#08132B"/>
</linearGradient>
<linearGradient id="paint39_linear_110_164" x1="1174.97" y1="-1456.24" x2="-1880.87" y2="236.549" gradientUnits="userSpaceOnUse">
<stop offset="0.08" stop-color="#8294B6"/>
<stop offset="1" stop-color="#08132B"/>
</linearGradient>
<linearGradient id="paint40_linear_110_164" x1="1301.84" y1="-1946.29" x2="-2368.72" y2="76.4188" gradientUnits="userSpaceOnUse">
<stop offset="0.08" stop-color="#8294B6"/>
<stop offset="1" stop-color="#08132B"/>
</linearGradient>
<linearGradient id="paint41_linear_110_164" x1="1503.96" y1="-2683.89" x2="-3108.61" y2="-116.874" gradientUnits="userSpaceOnUse">
<stop offset="0.08" stop-color="#8294B6"/>
<stop offset="1" stop-color="#08132B"/>
</linearGradient>
<linearGradient id="paint42_linear_110_164" x1="1871.75" y1="-3932.02" x2="-4386.67" y2="-338.471" gradientUnits="userSpaceOnUse">
<stop offset="0.08" stop-color="#8294B6"/>
<stop offset="1" stop-color="#08132B"/>
</linearGradient>
<linearGradient id="paint43_linear_110_164" x1="2197.7" y1="-6207.66" x2="-6276.3" y2="-2154.94" gradientUnits="userSpaceOnUse">
<stop offset="0.08" stop-color="#8294B6"/>
<stop offset="1" stop-color="#08132B"/>
</linearGradient>
<linearGradient id="paint44_linear_110_164" x1="2646.89" y1="-12856.1" x2="-9534.09" y2="-9115.63" gradientUnits="userSpaceOnUse">
<stop offset="0.08" stop-color="#8294B6"/>
<stop offset="1" stop-color="#08132B"/>
</linearGradient>
<linearGradient id="paint45_linear_110_164" x1="329.664" y1="-329.704" x2="-177.626" y2="438.549" gradientUnits="userSpaceOnUse">
<stop offset="0.11" stop-color="#8294B6"/>
<stop offset="0.17" stop-color="#8294B6"/>
<stop offset="0.381" stop-color="#8294B6"/>
<stop offset="0.496" stop-color="#8294B6"/>
<stop offset="0.631" stop-color="#8294B6"/>
<stop offset="0.831" stop-color="#8294B6"/>
<stop offset="0.9999" stop-color="#8294B6"/>
<stop offset="1" stop-color="#08132B"/>
</linearGradient>
</defs>
</svg>
