<svg width="43" height="43" viewBox="0 0 43 43" fill="none" xmlns="http://www.w3.org/2000/svg">
<path d="M39.4168 37.625V34.0417C39.4168 30.7023 37.1329 27.8964 34.0418 27.1008M27.771 5.89594C30.3974 6.95909 32.2502 9.53402 32.2502 12.5417C32.2502 15.5493 30.3974 18.1242 27.771 19.1874M30.4585 37.625C30.4585 34.2858 30.4585 32.6161 29.913 31.2991C29.1856 29.5431 27.7904 28.1479 26.0344 27.4205C24.7174 26.875 23.0477 26.875 19.7085 26.875H14.3335C10.9942 26.875 9.32462 26.875 8.0076 27.4205C6.25156 28.1479 4.8564 29.5431 4.12903 31.2991C3.5835 32.6161 3.5835 34.2858 3.5835 37.625M24.1877 12.5417C24.1877 16.4997 20.979 19.7083 17.021 19.7083C13.063 19.7083 9.85433 16.4997 9.85433 12.5417C9.85433 8.58363 13.063 5.375 17.021 5.375C20.979 5.375 24.1877 8.58363 24.1877 12.5417Z" stroke="black" stroke-width="2" stroke-linecap="round" stroke-linejoin="round"/>
</svg>
