<svg width="49" height="48" viewBox="0 0 49 48" fill="none" xmlns="http://www.w3.org/2000/svg">
<path d="M24.5 16.9644L5.85008 29.0621C4.23363 30.1106 3.42541 30.6349 3.14549 31.2997C2.90086 31.8807 2.90086 32.5356 3.14549 33.1166M24.5 16.9644L43.1499 29.0621C44.7664 30.1106 45.5746 30.6349 45.8545 31.2997C46.0991 31.8807 46.0991 32.5356 45.8545 33.1166M24.5 16.9644V1.72071M24.5 31.0356L5.85007 18.9379C4.23363 17.8894 3.42541 17.3651 3.14549 16.7003C2.90086 16.1193 2.90086 15.4644 3.14549 14.8834M24.5 31.0356L43.1499 18.9379C44.7664 17.8894 45.5746 17.3651 45.8545 16.7003C46.0991 16.1193 46.0991 15.4644 45.8545 14.8834M24.5 31.0356V46.2793M46.2892 33.3179L26.5492 46.1227C25.8074 46.6038 25.4366 46.8443 25.037 46.9379C24.6838 47.0207 24.3162 47.0207 23.963 46.9379C23.5634 46.8443 23.1926 46.6038 22.4508 46.1227L2.71084 33.3179C2.08573 32.9124 1.77318 32.7097 1.54672 32.4393C1.34626 32.1999 1.19568 31.923 1.1038 31.6248C1 31.2879 1 30.9159 1 30.1718V17.8282C1 17.0841 1 16.7121 1.1038 16.3752C1.19568 16.077 1.34626 15.8001 1.54672 15.5607C1.77318 15.2903 2.08573 15.0876 2.71085 14.6821L22.4508 1.87734C23.1926 1.39621 23.5634 1.15565 23.963 1.06205C24.3162 0.979316 24.6838 0.979316 25.037 1.06205C25.4366 1.15565 25.8074 1.39621 26.5492 1.87734L46.2892 14.6821C46.9143 15.0876 47.2268 15.2903 47.4533 15.5607C47.6537 15.8001 47.8043 16.077 47.8962 16.3752C48 16.7121 48 17.0841 48 17.8282V30.1718C48 30.9159 48 31.2879 47.8962 31.6248C47.8043 31.923 47.6537 32.1999 47.4533 32.4393C47.2268 32.7097 46.9143 32.9124 46.2892 33.3179Z" stroke="black" stroke-width="2" stroke-linecap="round" stroke-linejoin="round"/>
</svg>
