<svg width="38" height="27" viewBox="0 0 38 27" fill="none" xmlns="http://www.w3.org/2000/svg">
<path d="M1 2.78571C2.08 3.67857 3.16 4.57143 5.5 4.57143C10 4.57143 10 1 14.5 1C16.84 1 17.92 1.89286 19 2.78571C20.08 3.67857 21.16 4.57143 23.5 4.57143C28 4.57143 28 1 32.5 1C34.84 1 35.92 1.89286 37 2.78571M1 24.2143C2.08 25.1071 3.16 26 5.5 26C10 26 10 22.4286 14.5 22.4286C16.84 22.4286 17.92 23.3214 19 24.2143C20.08 25.1071 21.16 26 23.5 26C28 26 28 22.4286 32.5 22.4286C34.84 22.4286 35.92 23.3214 37 24.2143M1 13.5C2.08 14.3929 3.16 15.2857 5.5 15.2857C10 15.2857 10 11.7143 14.5 11.7143C16.84 11.7143 17.92 12.6071 19 13.5C20.08 14.3929 21.16 15.2857 23.5 15.2857C28 15.2857 28 11.7143 32.5 11.7143C34.84 11.7143 35.92 12.6071 37 13.5" stroke="black" stroke-width="2" stroke-linecap="round" stroke-linejoin="round"/>
</svg>
