<svg width="512" height="128" viewBox="0 0 512 128" fill="none" xmlns="http://www.w3.org/2000/svg">
<path d="M189.131 76.2667V63.3086L248.434 63.4082C251.46 63.4082 253.763 62.7437 255.344 61.4147C256.995 60.0192 257.82 57.793 257.82 54.7362C257.82 51.6794 256.995 49.4865 255.344 48.1575C253.763 46.762 251.46 46.0642 248.434 46.0642H211.512C203.88 46.0642 197.932 44.3032 193.669 40.7813C189.475 37.1929 187.378 31.9431 187.378 25.0321C187.378 18.1211 189.475 12.9046 193.669 9.38263C197.932 5.79421 203.88 4 211.512 4H269.474V16.9582L213.265 16.8585C210.308 16.8585 208.005 17.523 206.355 18.8521C204.705 20.1146 203.88 22.1747 203.88 25.0321C203.88 27.8895 204.705 29.9828 206.355 31.3118C208.005 32.5744 210.308 33.2057 213.265 33.2057H250.188C257.82 33.2057 263.733 35.0332 267.927 38.688C272.19 42.2764 274.321 47.6258 274.321 54.7362C274.321 61.7802 272.19 67.1295 267.927 70.7844C263.733 74.4393 257.82 76.2667 250.188 76.2667H189.131Z" fill="white"/>
<path d="M310.349 76.2667C301.135 76.2667 293.95 74.0738 288.793 69.688C283.637 65.2357 281.058 58.7234 281.058 50.151C281.058 41.5122 283.637 34.9999 288.793 30.6141C293.95 26.1618 301.135 23.9356 310.349 23.9356H329.429C338.642 23.9356 345.828 26.1618 350.984 30.6141C356.141 34.9999 358.72 41.5122 358.72 50.151C358.72 58.7234 356.141 65.2357 350.984 69.688C345.828 74.0738 338.642 76.2667 329.429 76.2667H310.349ZM310.349 64.8037H329.429C333.898 64.8037 337.302 63.6076 339.639 61.2153C342.046 58.823 343.249 55.1349 343.249 50.151C343.249 45.1007 342.046 41.3793 339.639 38.9871C337.302 36.5948 333.898 35.3986 329.429 35.3986H310.349C305.88 35.3986 302.442 36.5948 300.035 38.9871C297.698 41.3793 296.529 45.1007 296.529 50.151C296.529 55.1349 297.698 58.823 300.035 61.2153C302.442 63.6076 305.88 64.8037 310.349 64.8037Z" fill="white"/>
<path d="M384.759 75.7683L362.378 24.434H378.055L395.382 64.2057H400.539L417.866 24.434H433.542L411.162 75.7683H384.759Z" fill="white"/>
<path d="M454.372 75.7683C448.802 75.7683 444.539 74.4061 441.583 71.6815C438.626 68.957 437.148 65.0695 437.148 60.0192C437.148 55.0353 438.626 51.181 441.583 48.4565C444.539 45.732 448.802 44.3697 454.372 44.3697H493.976V41.9774C493.976 37.9238 491.913 35.897 487.788 35.897H444.058V24.434H491.707C497.964 24.434 502.399 25.8295 505.011 28.6205C507.624 31.3451 508.93 35.1993 508.93 40.1832V75.7683H454.372ZM457.053 64.3053H493.976V55.8327H457.053C455.747 55.8327 454.715 56.2314 453.959 57.0288C453.271 57.7598 452.928 58.7566 452.928 60.0192C452.928 61.2818 453.271 62.3118 453.959 63.1092C454.715 63.9066 455.747 64.3053 457.053 64.3053Z" fill="white"/>
<path d="M198.079 111.844C196.341 111.844 194.735 111.567 193.261 111.015C191.787 110.44 190.51 109.643 189.432 108.622C188.354 107.602 187.507 106.4 186.891 105.018C186.297 103.636 186 102.126 186 100.489C186 98.8512 186.297 97.3414 186.891 95.9592C187.507 94.577 188.354 93.3755 189.432 92.3548C190.532 91.3341 191.82 90.5473 193.294 89.9944C194.768 89.4203 196.374 89.1332 198.112 89.1332C199.784 89.1332 201.358 89.4096 202.832 89.9625C204.306 90.4941 205.549 91.3022 206.561 92.3867L205.01 93.8858C204.064 92.9502 203.019 92.2804 201.875 91.8763C200.731 91.451 199.498 91.2384 198.178 91.2384C196.792 91.2384 195.505 91.4723 194.317 91.9401C193.129 92.3867 192.095 93.0353 191.215 93.8858C190.334 94.7152 189.641 95.6933 189.135 96.8204C188.651 97.9261 188.409 99.1489 188.409 100.489C188.409 101.828 188.651 103.062 189.135 104.189C189.641 105.294 190.334 106.273 191.215 107.123C192.095 107.952 193.129 108.601 194.317 109.069C195.505 109.515 196.792 109.739 198.178 109.739C199.498 109.739 200.731 109.526 201.875 109.101C203.019 108.675 204.064 107.995 205.01 107.059L206.561 108.558C205.549 109.643 204.306 110.462 202.832 111.015C201.358 111.567 199.773 111.844 198.079 111.844Z" fill="white"/>
<path d="M217.562 111.812C215.889 111.812 214.382 111.45 213.04 110.727C211.72 109.983 210.675 108.973 209.905 107.697C209.135 106.4 208.75 104.922 208.75 103.264C208.75 101.584 209.135 100.106 209.905 98.8299C210.675 97.554 211.72 96.5546 213.04 95.8316C214.36 95.1086 215.867 94.7471 217.562 94.7471C219.278 94.7471 220.796 95.1086 222.116 95.8316C223.458 96.5546 224.503 97.554 225.251 98.8299C226.022 100.106 226.407 101.584 226.407 103.264C226.407 104.922 226.022 106.4 225.251 107.697C224.503 108.973 223.458 109.983 222.116 110.727C220.774 111.45 219.256 111.812 217.562 111.812ZM217.562 109.802C218.816 109.802 219.927 109.537 220.895 109.005C221.863 108.452 222.622 107.687 223.172 106.708C223.744 105.709 224.03 104.561 224.03 103.264C224.03 101.945 223.744 100.797 223.172 99.8187C222.622 98.8405 221.863 98.0856 220.895 97.554C219.927 97.0011 218.827 96.7247 217.595 96.7247C216.363 96.7247 215.262 97.0011 214.294 97.554C213.326 98.0856 212.556 98.8405 211.984 99.8187C211.412 100.797 211.126 101.945 211.126 103.264C211.126 104.561 211.412 105.709 211.984 106.708C212.556 107.687 213.326 108.452 214.294 109.005C215.262 109.537 216.352 109.802 217.562 109.802Z" fill="white"/>
<path d="M252.841 94.7471C254.249 94.7471 255.47 95.0129 256.504 95.5445C257.56 96.0548 258.374 96.8416 258.946 97.9049C259.54 98.9681 259.838 100.308 259.838 101.924V111.652H257.494V102.147C257.494 100.382 257.054 99.0532 256.174 98.16C255.316 97.2457 254.095 96.7885 252.511 96.7885C251.323 96.7885 250.289 97.033 249.408 97.5221C248.55 97.9899 247.879 98.681 247.395 99.5954C246.933 100.489 246.702 101.573 246.702 102.849V111.652H244.359V102.147C244.359 100.382 243.919 99.0532 243.039 98.16C242.159 97.2457 240.927 96.7885 239.342 96.7885C238.176 96.7885 237.153 97.033 236.273 97.5221C235.393 97.9899 234.711 98.681 234.227 99.5954C233.765 100.489 233.534 101.573 233.534 102.849V111.652H231.191V94.9065H233.435V99.4359L233.072 98.6385C233.6 97.4264 234.447 96.4801 235.613 95.7997C236.801 95.0979 238.198 94.7471 239.804 94.7471C241.499 94.7471 242.94 95.1617 244.128 95.9911C245.316 96.7991 246.086 98.0218 246.438 99.6592L245.514 99.3083C246.02 97.9474 246.911 96.8523 248.187 96.0229C249.485 95.1724 251.037 94.7471 252.841 94.7471Z" fill="white"/>
<path d="M287.843 94.7471C289.251 94.7471 290.472 95.0129 291.506 95.5445C292.562 96.0548 293.376 96.8416 293.948 97.9049C294.542 98.9681 294.839 100.308 294.839 101.924V111.652H292.496V102.147C292.496 100.382 292.056 99.0532 291.176 98.16C290.318 97.2457 289.097 96.7885 287.512 96.7885C286.324 96.7885 285.29 97.033 284.41 97.5221C283.552 97.9899 282.881 98.681 282.397 99.5954C281.935 100.489 281.704 101.573 281.704 102.849V111.652H279.361V102.147C279.361 100.382 278.921 99.0532 278.04 98.16C277.16 97.2457 275.928 96.7885 274.344 96.7885C273.178 96.7885 272.155 97.033 271.275 97.5221C270.395 97.9899 269.713 98.681 269.229 99.5954C268.767 100.489 268.535 101.573 268.535 102.849V111.652H266.192V94.9065H268.436V99.4359L268.073 98.6385C268.601 97.4264 269.449 96.4801 270.615 95.7997C271.803 95.0979 273.2 94.7471 274.806 94.7471C276.5 94.7471 277.941 95.1617 279.13 95.9911C280.318 96.7991 281.088 98.0218 281.44 99.6592L280.516 99.3083C281.022 97.9474 281.913 96.8523 283.189 96.0229C284.487 95.1724 286.038 94.7471 287.843 94.7471Z" fill="white"/>
<path d="M308.257 111.812C306.585 111.812 305.077 111.45 303.735 110.727C302.415 109.983 301.37 108.973 300.6 107.697C299.83 106.4 299.445 104.922 299.445 103.264C299.445 101.584 299.83 100.106 300.6 98.8299C301.37 97.554 302.415 96.5546 303.735 95.8316C305.055 95.1086 306.563 94.7471 308.257 94.7471C309.973 94.7471 311.491 95.1086 312.811 95.8316C314.153 96.5546 315.198 97.554 315.947 98.8299C316.717 100.106 317.102 101.584 317.102 103.264C317.102 104.922 316.717 106.4 315.947 107.697C315.198 108.973 314.153 109.983 312.811 110.727C311.469 111.45 309.951 111.812 308.257 111.812ZM308.257 109.802C309.511 109.802 310.622 109.537 311.59 109.005C312.558 108.452 313.317 107.687 313.867 106.708C314.439 105.709 314.725 104.561 314.725 103.264C314.725 101.945 314.439 100.797 313.867 99.8187C313.317 98.8405 312.558 98.0856 311.59 97.554C310.622 97.0011 309.522 96.7247 308.29 96.7247C307.058 96.7247 305.957 97.0011 304.989 97.554C304.021 98.0856 303.251 98.8405 302.679 99.8187C302.107 100.797 301.821 101.945 301.821 103.264C301.821 104.561 302.107 105.709 302.679 106.708C303.251 107.687 304.021 108.452 304.989 109.005C305.957 109.537 307.047 109.802 308.257 109.802Z" fill="white"/>
<path d="M328.783 111.812C327.133 111.812 325.648 111.45 324.328 110.727C323.03 110.004 322.007 109.005 321.259 107.729C320.51 106.432 320.136 104.943 320.136 103.264C320.136 101.562 320.51 100.074 321.259 98.798C322.007 97.5221 323.03 96.5333 324.328 95.8316C325.648 95.1086 327.133 94.7471 328.783 94.7471C330.301 94.7471 331.655 95.0767 332.843 95.7359C334.053 96.3951 335.01 97.3626 335.714 98.6385C336.44 99.8931 336.803 101.435 336.803 103.264C336.803 105.071 336.451 106.613 335.747 107.889C335.043 109.165 334.086 110.143 332.876 110.823C331.688 111.482 330.323 111.812 328.783 111.812ZM328.948 109.802C330.18 109.802 331.281 109.537 332.249 109.005C333.239 108.452 334.009 107.687 334.559 106.708C335.131 105.709 335.417 104.561 335.417 103.264C335.417 101.945 335.131 100.797 334.559 99.8187C334.009 98.8405 333.239 98.0856 332.249 97.554C331.281 97.0011 330.18 96.7247 328.948 96.7247C327.738 96.7247 326.649 97.0011 325.681 97.554C324.713 98.0856 323.943 98.8405 323.371 99.8187C322.799 100.797 322.513 101.945 322.513 103.264C322.513 104.561 322.799 105.709 323.371 106.708C323.943 107.687 324.713 108.452 325.681 109.005C326.649 109.537 327.738 109.802 328.948 109.802ZM335.483 111.652V106.613L335.714 103.232L335.384 99.8506V87.9849H337.727V111.652H335.483Z" fill="white"/>
<path d="M344.253 111.652V94.9065H346.596V111.652H344.253ZM345.441 91.2065C344.957 91.2065 344.55 91.047 344.22 90.728C343.89 90.4091 343.725 90.0263 343.725 89.5797C343.725 89.1332 343.89 88.7611 344.22 88.4633C344.55 88.1444 344.957 87.9849 345.441 87.9849C345.925 87.9849 346.332 88.1337 346.662 88.4314C346.992 88.7292 347.158 89.1013 347.158 89.5479C347.158 90.0157 346.992 90.4091 346.662 90.728C346.354 91.047 345.947 91.2065 345.441 91.2065Z" fill="white"/>
<path d="M358.595 111.812C356.967 111.812 355.713 111.387 354.833 110.536C353.952 109.686 353.512 108.484 353.512 106.932V91.2065H355.856V106.804C355.856 107.782 356.109 108.537 356.615 109.069C357.143 109.6 357.891 109.866 358.859 109.866C359.893 109.866 360.751 109.579 361.433 109.005L362.258 110.632C361.796 111.036 361.235 111.334 360.575 111.525C359.937 111.716 359.277 111.812 358.595 111.812ZM350.41 96.7885V94.9065H361.136V96.7885H350.41Z" fill="white"/>
<path d="M366.334 118C365.52 118 364.739 117.872 363.991 117.617C363.264 117.362 362.637 116.979 362.109 116.469L363.198 114.778C363.638 115.182 364.112 115.491 364.618 115.703C365.146 115.937 365.729 116.054 366.367 116.054C367.137 116.054 367.797 115.842 368.347 115.416C368.919 115.012 369.458 114.289 369.964 113.247L371.086 110.791L371.35 110.44L378.479 94.9065H380.789L372.109 113.662C371.625 114.747 371.086 115.608 370.492 116.246C369.92 116.884 369.293 117.33 368.611 117.585C367.929 117.862 367.17 118 366.334 118ZM370.954 112.131L362.967 94.9065H365.41L372.472 110.281L370.954 112.131Z" fill="white"/>
<path d="M397.711 111.652V91.366H389.592V89.3246H408.272V91.366H400.153V111.652H397.711Z" fill="white"/>
<path d="M411.227 111.652V94.9065H413.471V99.4678L413.24 98.6704C413.724 97.3945 414.538 96.427 415.682 95.7678C416.827 95.0873 418.246 94.7471 419.94 94.7471V96.948C419.852 96.948 419.764 96.948 419.676 96.948C419.588 96.9267 419.5 96.9161 419.412 96.9161C417.586 96.9161 416.156 97.4583 415.121 98.5428C414.087 99.606 413.57 101.126 413.57 103.104V111.652H411.227Z" fill="white"/>
<path d="M433.785 111.652V107.952L433.686 107.346V101.158C433.686 99.7336 433.268 98.6385 432.431 97.873C431.617 97.1074 430.396 96.7247 428.768 96.7247C427.646 96.7247 426.579 96.9054 425.567 97.2669C424.555 97.6284 423.697 98.1069 422.992 98.7023L421.936 97.0118C422.816 96.2888 423.873 95.7359 425.105 95.3531C426.337 94.9491 427.635 94.7471 428.999 94.7471C431.243 94.7471 432.971 95.2893 434.181 96.3738C435.413 97.437 436.029 99.0638 436.029 101.254V111.652H433.785ZM427.811 111.812C426.513 111.812 425.38 111.61 424.412 111.206C423.466 110.781 422.739 110.206 422.233 109.483C421.727 108.739 421.474 107.889 421.474 106.932C421.474 106.06 421.683 105.273 422.101 104.571C422.541 103.848 423.246 103.274 424.214 102.849C425.204 102.402 426.524 102.179 428.174 102.179H434.148V103.87H428.24C426.568 103.87 425.402 104.157 424.742 104.731C424.104 105.305 423.785 106.017 423.785 106.868C423.785 107.825 424.17 108.59 424.94 109.165C425.71 109.739 426.788 110.026 428.174 110.026C429.494 110.026 430.627 109.739 431.573 109.165C432.542 108.569 433.246 107.719 433.686 106.613L434.214 108.176C433.774 109.281 433.004 110.164 431.903 110.823C430.825 111.482 429.461 111.812 427.811 111.812Z" fill="white"/>
<path d="M449.291 111.812C447.641 111.812 446.156 111.45 444.836 110.727C443.538 110.004 442.514 109.005 441.766 107.729C441.018 106.432 440.644 104.943 440.644 103.264C440.644 101.562 441.018 100.074 441.766 98.798C442.514 97.5221 443.538 96.5333 444.836 95.8316C446.156 95.1086 447.641 94.7471 449.291 94.7471C450.809 94.7471 452.162 95.0767 453.351 95.7359C454.561 96.3951 455.518 97.3626 456.222 98.6385C456.948 99.8931 457.311 101.435 457.311 103.264C457.311 105.071 456.959 106.613 456.255 107.889C455.551 109.165 454.594 110.143 453.384 110.823C452.195 111.482 450.831 111.812 449.291 111.812ZM449.456 109.802C450.688 109.802 451.788 109.537 452.756 109.005C453.747 108.452 454.517 107.687 455.067 106.708C455.639 105.709 455.925 104.561 455.925 103.264C455.925 101.945 455.639 100.797 455.067 99.8187C454.517 98.8405 453.747 98.0856 452.756 97.554C451.788 97.0011 450.688 96.7247 449.456 96.7247C448.246 96.7247 447.157 97.0011 446.189 97.554C445.221 98.0856 444.451 98.8405 443.879 99.8187C443.306 100.797 443.02 101.945 443.02 103.264C443.02 104.561 443.306 105.709 443.879 106.708C444.451 107.687 445.221 108.452 446.189 109.005C447.157 109.537 448.246 109.802 449.456 109.802ZM455.991 111.652V106.613L456.222 103.232L455.892 99.8506V87.9849H458.235V111.652H455.991Z" fill="white"/>
<path d="M464.761 111.652V94.9065H467.104V111.652H464.761ZM465.949 91.2065C465.465 91.2065 465.058 91.047 464.728 90.728C464.398 90.4091 464.233 90.0263 464.233 89.5797C464.233 89.1332 464.398 88.7611 464.728 88.4633C465.058 88.1444 465.465 87.9849 465.949 87.9849C466.433 87.9849 466.84 88.1337 467.17 88.4314C467.5 88.7292 467.665 89.1013 467.665 89.5479C467.665 90.0157 467.5 90.4091 467.17 90.728C466.862 91.047 466.455 91.2065 465.949 91.2065Z" fill="white"/>
<path d="M482.469 94.7471C483.877 94.7471 485.109 95.0129 486.165 95.5445C487.244 96.0548 488.08 96.8416 488.674 97.9049C489.29 98.9681 489.598 100.308 489.598 101.924V111.652H487.255V102.147C487.255 100.382 486.793 99.0532 485.868 98.16C484.966 97.2457 483.69 96.7885 482.04 96.7885C480.808 96.7885 479.73 97.033 478.806 97.5221C477.904 97.9899 477.2 98.681 476.694 99.5954C476.209 100.489 475.967 101.573 475.967 102.849V111.652H473.624V94.9065H475.868V99.4997L475.505 98.6385C476.055 97.4264 476.936 96.4801 478.146 95.7997C479.356 95.0979 480.797 94.7471 482.469 94.7471Z" fill="white"/>
<path d="M503.32 118C501.736 118 500.218 117.777 498.766 117.33C497.313 116.884 496.136 116.246 495.234 115.416L496.422 113.694C497.236 114.396 498.238 114.949 499.426 115.353C500.636 115.778 501.912 115.99 503.254 115.99C505.454 115.99 507.071 115.491 508.106 114.491C509.14 113.513 509.657 111.982 509.657 109.898V105.72L509.987 102.849L509.756 99.9782V94.9065H512V109.611C512 112.503 511.263 114.619 509.789 115.959C508.337 117.32 506.18 118 503.32 118ZM502.891 111.015C501.241 111.015 499.756 110.674 498.436 109.994C497.115 109.292 496.07 108.325 495.3 107.091C494.552 105.858 494.178 104.444 494.178 102.849C494.178 101.254 494.552 99.8506 495.3 98.6385C496.07 97.4051 497.115 96.4482 498.436 95.7678C499.756 95.0873 501.241 94.7471 502.891 94.7471C504.431 94.7471 505.817 95.0554 507.049 95.6721C508.282 96.2888 509.261 97.2031 509.987 98.4152C510.713 99.6273 511.076 101.105 511.076 102.849C511.076 104.593 510.713 106.071 509.987 107.283C509.261 108.495 508.282 109.42 507.049 110.058C505.817 110.696 504.431 111.015 502.891 111.015ZM503.122 109.005C504.398 109.005 505.531 108.75 506.521 108.24C507.512 107.708 508.293 106.985 508.865 106.071C509.437 105.135 509.723 104.061 509.723 102.849C509.723 101.637 509.437 100.574 508.865 99.6592C508.293 98.7448 507.512 98.0325 506.521 97.5221C505.531 96.9905 504.398 96.7247 503.122 96.7247C501.868 96.7247 500.735 96.9905 499.723 97.5221C498.733 98.0325 497.952 98.7448 497.379 99.6592C496.829 100.574 496.554 101.637 496.554 102.849C496.554 104.061 496.829 105.135 497.379 106.071C497.952 106.985 498.733 107.708 499.723 108.24C500.735 108.75 501.868 109.005 503.122 109.005Z" fill="white"/>
<path d="M89.0536 36.217C82.714 25.2466 73.6303 18.287 61.3161 16.0235C51.8853 14.291 42.9174 15.8633 34.6258 20.7938C18.1643 30.5835 11.2699 50.5663 17.9596 68.4251C24.0114 84.5781 43.0331 98.168 65.5464 91.8848C65.6265 92.5197 65.9321 93.2168 65.7363 93.7211C64.9679 95.685 65.6473 97.6014 65.7986 99.5178C65.9232 101.096 65.2972 101.66 63.8258 101.927C49.5773 104.519 36.5719 101.591 25.0793 92.8222C13.9458 84.3289 7.66851 72.9254 6.26235 58.9795C3.82679 34.8108 20.5168 11.8614 44.19 7.16531C60.7346 3.88131 75.4192 7.96332 87.8165 19.5953C88.7243 20.4467 89.2523 20.3844 90.1245 19.5715C101.439 9.02832 114.845 4.56066 130.147 6.53936C150.174 9.12918 167.253 24.4338 171.154 45.5142C175.778 70.4958 160.599 94.6111 136.139 101.167C128.821 103.128 121.419 103.333 113.97 101.85C112.807 101.618 112.323 101.191 112.377 99.9183C112.487 97.2929 112.409 94.6585 112.409 91.8522C125.231 95.3023 136.881 93.2227 147.362 85.3554C155.078 79.5646 159.682 71.7655 161.83 62.4059C165.781 45.185 156.187 26.3264 139.862 18.8981C120.781 10.215 97.9385 18.4413 89.0536 36.217Z" fill="white"/>
<path d="M112.534 104.377C127.809 107.439 141.796 104.57 154.256 95.3379C163.304 88.6335 169.436 79.7159 172.61 68.8879C178.748 47.9498 171.142 24.8995 152.087 11.9682C134.03 -0.286701 107.304 -0.173971 89.0418 16.8097C77.9053 6.74408 64.7307 2.35949 49.8474 3.51052C38.791 4.36489 29.0606 8.71093 20.6593 15.9879C4.04644 30.3729 -1.14804 54.3873 7.63599 75.1296C14.9427 92.3862 36.7678 110.361 65.4486 104.439C65.5139 104.662 65.6177 104.887 65.6385 105.119C65.855 107.634 65.7957 107.706 63.2949 108.115C33.8754 112.912 6.32477 93.5105 0.901866 64.174C-4.34601 35.778 13.8272 7.78535 41.9237 1.49621C58.9459 -2.31287 74.556 1.13725 88.3743 12.0038C88.5286 12.1255 88.6829 12.2412 88.7896 12.3212C91.3824 10.6244 93.8566 8.83552 96.4849 7.3107C107.402 0.982994 119.209 -1.15294 131.621 0.603272C153.102 3.64105 171.151 20.0996 176.416 41.1386C183.943 71.2108 164.799 101.612 134.422 107.777C127.773 109.127 121.096 109.254 114.385 108.109C112.789 107.836 112.098 107.27 112.401 105.659C112.472 105.282 112.481 104.893 112.531 104.374L112.534 104.377Z" fill="white"/>
<path d="M112.594 79.3126C114.976 79.8881 117.337 80.6179 119.749 81.0124C135.359 83.5815 149.999 71.2464 150.536 55.4109C150.993 41.9396 141.337 30.2217 128.492 27.973C111.635 25.0242 96.8025 37.5105 96.7729 54.6692C96.7343 77.0135 96.761 99.3548 96.758 121.699C96.758 122.835 96.7551 123.974 96.6839 125.108C96.5771 126.837 95.34 127.97 93.4177 128V126.573C93.4236 102.499 93.3999 78.4256 93.4503 54.3518C93.48 39.9847 103.379 27.8899 117.477 24.8255C133.834 21.2685 150.483 32.4644 153.363 48.9586C156.125 64.7793 146.605 79.6567 131.013 83.6942C125.608 85.0944 120.152 85.0025 114.78 83.3115C112.161 82.4868 111.98 82.1278 112.603 79.3096H112.594V79.3126Z" fill="white"/>
<path d="M65.4518 79.0812C66.2201 81.7303 65.9205 82.3474 63.6481 83.1216C45.6469 89.2387 25.9755 76.3667 24.2816 57.3658C22.7954 40.7085 34.9613 25.9705 51.5711 24.3122C66.2349 22.8467 80.252 32.7373 83.6369 47.0599C84.2213 49.5341 84.5476 52.1298 84.5565 54.6722C84.6336 78.4493 84.6158 102.226 84.6247 126.001V127.887C82.8923 128.104 81.5395 126.971 81.3437 125.235C81.2933 124.796 81.3259 124.345 81.3259 123.9V54.9421C81.3259 40.6076 71.5688 29.5423 57.3411 27.7297C41.9387 25.7688 27.7703 38.0742 27.5241 53.6279C27.3134 66.8618 35.7356 77.7284 48.5512 80.6801C53.8465 81.8994 59.0499 81.4337 64.1346 79.5439C64.544 79.3926 64.9623 79.2532 65.4547 79.0812H65.4518Z" fill="white"/>
<path d="M78.5344 120.652C76.6625 120.678 75.4818 119.708 75.2415 118.023C75.1585 117.439 75.1822 116.84 75.1822 116.246C75.2089 96.2279 75.1674 76.2095 75.3008 56.191C75.3513 48.5105 72.978 42.0137 66.6147 37.5372C59.4297 32.4821 51.6513 31.9303 44.0153 36.395C36.2459 40.9369 32.6207 48.0833 33.7154 56.992C34.8011 65.8264 40.0016 71.7388 48.5512 74.4414C53.8377 76.1145 58.9936 75.4322 63.9418 72.9996C64.3393 72.8038 64.7458 72.6199 65.1522 72.4449C65.2323 72.4093 65.342 72.4389 65.6476 72.4389C65.6476 73.3497 65.7692 74.2901 65.5972 75.1712C65.5082 75.625 64.9683 76.1323 64.5055 76.3518C52.1378 82.1841 37.0023 76.1798 31.974 63.4739C26.0468 48.4957 35.7445 32.2893 51.7522 30.4263C65.9087 28.7798 78.5166 39.9935 78.5255 54.2627C78.5374 75.8624 78.5314 97.465 78.5314 119.065V120.652H78.5344Z" fill="white"/>
<path d="M99.3829 120.649V116.095C99.3978 95.6348 99.3859 75.1713 99.4393 54.7108C99.469 42.6547 107.666 32.6514 119.484 30.646C128.696 29.0826 136.539 32.1026 142.437 39.3321C148.334 46.5616 149.465 54.7939 145.979 63.4326C140.894 76.0405 126.729 81.9559 114.474 76.7881C112.086 75.7824 111.982 75.5392 112.611 72.3115C113.023 72.4895 113.427 72.6408 113.806 72.8336C121.072 76.4736 128.274 76.3461 135.053 71.8606C141.87 67.3514 144.911 60.7063 144.442 52.5719C143.888 42.9217 135.415 34.4758 125.661 33.6748C113.109 32.6425 102.836 41.9516 102.797 54.5684C102.738 74.8806 102.797 95.1957 102.797 115.508C102.797 116.395 102.803 117.297 102.664 118.166C102.403 119.768 101.204 120.682 99.38 120.646L99.3829 120.649Z" fill="white"/>
<path d="M72.5118 112.956C70.4501 112.95 69.2842 111.731 69.2694 109.557C69.2278 103.38 69.1863 97.2039 69.1893 91.0274C69.1982 78.9238 69.2575 66.8202 69.2605 54.7165C69.2605 46.6326 63.7248 40.56 55.6291 39.6879C48.2245 38.8899 41.5734 43.9093 39.8854 51.566C38.1381 59.5046 43.9259 67.8615 51.9594 69.0807C56.7208 69.8016 60.8324 68.4815 64.4457 65.3903C64.8136 65.0758 65.1874 64.7732 65.5908 64.438C66.4185 67.6508 65.9616 68.7811 63.2057 70.2288C56.967 73.5068 50.7045 73.5276 44.7477 69.7393C38.8204 65.9688 36.0378 60.3234 36.2751 53.2985C36.5777 44.3009 44.5489 36.6887 53.5525 36.3327C64.0007 35.9203 72.5029 43.9182 72.5652 54.7373C72.675 73.7649 72.5979 92.7926 72.5949 111.82C72.5949 112.203 72.5385 112.586 72.5118 112.959V112.956Z" fill="white"/>
<path d="M105.42 113.084V109.595C105.42 92.4426 105.403 75.2899 105.438 58.1401C105.447 54.1441 105.509 50.16 107.364 46.4162C110.84 39.3973 118.426 35.3924 126.43 36.5138C133.745 37.5402 140.206 43.6454 141.42 51.0144C142.681 58.683 140.198 65.0107 133.704 69.4012C127.415 73.6523 120.85 73.5841 114.249 69.9204C112.902 69.1728 112.125 68.271 112.395 66.6482C112.496 66.0342 112.413 65.3875 112.413 64.358C113.018 64.8802 113.368 65.165 113.703 65.4675C118.696 69.9589 126.112 70.5345 131.689 66.8648C137.462 63.0646 139.892 56.022 137.655 49.5845C135.448 43.236 129.275 39.16 122.582 39.6287C115.806 40.1063 110.318 45.0338 109.114 51.7768C108.933 52.7884 108.874 53.8356 108.874 54.868C108.865 72.9582 108.879 91.0454 108.879 109.136C108.879 111.521 107.88 112.755 105.426 113.081H105.42V113.084Z" fill="white"/>
</svg>
